<?xml version="1.0" encoding="UTF-8"?>
<svg width="73px" height="111px" viewBox="0 0 73 111" version="1.1" xmlns="http://www.w3.org/2000/svg" xmlns:xlink="http://www.w3.org/1999/xlink">
    <!-- Generator: Sketch 46.2 (44496) - http://www.bohemiancoding.com/sketch -->
    <title>arrow-plane-down</title>
    <desc>Created with Sketch.</desc>
    <defs></defs>
    <g id="Components" stroke="none" stroke-width="1" fill="none" fill-rule="evenodd">
        <g id="Homepage" transform="translate(-896.000000, -1741.000000)" stroke="#919EAB">
            <g id="Feedback-Management" transform="translate(0.000000, 1272.000000)">
                <g id="Illustration" transform="translate(128.000000, 231.000000)">
                    <g id="Group-38">
                        <g id="arrow-plane-down" transform="translate(768.000000, 239.000000)">
                            <g id="Group-26" transform="translate(65.237284, 94.187581) rotate(21.000000) translate(-65.237284, -94.187581) translate(45.737284, 74.687581)" stroke-linejoin="round">
                                <g id="email-send-1" transform="translate(19.414620, 19.716388) rotate(-242.000000) translate(-19.414620, -19.716388) translate(5.414620, 5.716388)">
                                    <path d="M25.3533601,3.56682764 L2.35336013,13.0668276 L11.3533601,16.5668276 L25.3533601,3.56682764 Z M25.3533601,3.56682764 L21.3533601,22.0668276 L11.3533601,16.5668276 L25.3533601,3.56682764 Z M11.3533601,16.5668276 L11.3533601,24.5668276 L14.8533601,18.5668276 L11.3533601,16.5668276 Z" id="Shape" transform="translate(13.853360, 14.066828) rotate(-15.000000) translate(-13.853360, -14.066828) "></path>
                                </g>
                            </g>
                            <path d="M55.8518001,72.356744 C46.5218185,50.7457212 32.1237329,30.5375317 13.5563549,12.3234988 C9.25736018,8.10631584 4.73485647,3.99603635 0,9.09494702e-13" id="Oval-6" stroke-dasharray="2"></path>
                        </g>
                    </g>
                </g>
            </g>
        </g>
    </g>
</svg>