<?xml version="1.0" encoding="UTF-8"?>
<svg width="107px" height="112px" viewBox="0 0 107 112" version="1.1" xmlns="http://www.w3.org/2000/svg" xmlns:xlink="http://www.w3.org/1999/xlink">
    <!-- Generator: Sketch 46.2 (44496) - http://www.bohemiancoding.com/sketch -->
    <title>collect-feedback</title>
    <desc>Created with Sketch.</desc>
    <defs>
        <polygon id="path-1" points="0 0.775784483 0 17.2540489 8.91741887 17.2540489 8.91741887 0.775784483 3.78447928e-20 0.775784483"></polygon>
    </defs>
    <g id="Components" stroke="none" stroke-width="1" fill="none" fill-rule="evenodd">
        <g id="Homepage" transform="translate(-594.000000, -1503.000000)">
            <g id="Feedback-Management" transform="translate(0.000000, 1272.000000)">
                <g id="Illustration" transform="translate(128.000000, 231.000000)">
                    <g id="Group-38">
                        <g id="Group-9" transform="translate(352.000000, 0.000000)">
                            <g id="Group-4">
                                <g id="Group-37">
                                    <g id="collect-feedback" transform="translate(114.000000, 0.000000)">
                                        <circle id="Oval" fill="#E3F9FF" cx="47.5" cy="64.5" r="47.5"></circle>
                                        <g id="Group-56" transform="translate(61.000000, 0.000000)">
                                            <path d="M38.89955,1.02172 L7.26716765,1.02172 C3.75737353,1.02172 0.912491176,3.90292 0.912491176,7.45752 L0.912491176,23.37272 C0.912491176,26.92732 3.75737353,29.80852 7.26716765,29.80852 L7.26716765,29.80852 C8.78084412,29.80852 10.0083735,31.05172 10.0083735,32.58472 L10.0083735,33.29732 L12.8504912,30.42592 C13.2416971,30.03112 13.7711382,29.80852 14.3240794,29.80852 L38.89955,29.80852 C42.4093441,29.80852 45.2542265,26.92732 45.2542265,23.37272 L45.2542265,7.45752 C45.2542265,3.90292 42.4093441,1.02172 38.89955,1.02172" id="Fill-35" fill="#FFFFFF"></path>
                                            <g id="Group-39" fill="#42457B">
                                                <path d="M38.89955,0.57778 C40.3634618,0.59458 41.8342853,1.07058 42.9913147,1.98618 C44.1649324,2.87798 45.0275206,4.17158 45.4159618,5.60098 C45.5196382,5.95378 45.5818441,6.32898 45.6288441,6.70978 C45.6551088,7.04998 45.6758441,7.43358 45.6703147,7.77938 L45.6647853,9.86398 L45.6551088,14.03598 L45.6412853,22.37858 C45.6329912,23.05758 45.6744618,23.78558 45.5362265,24.52338 C45.4104324,25.24858 45.1754324,25.95558 44.8312265,26.60658 C44.1262265,27.89178 43.0286382,28.96978 41.6946676,29.56618 C41.0283735,29.86858 40.3358147,30.06598 39.5838147,30.14858 C38.89955,30.19898 38.1751971,30.18358 37.5047559,30.19198 L33.3867265,30.21578 L25.1492853,30.26618 L16.9118441,30.32358 L14.8521382,30.33758 L14.3365206,30.34178 C14.2024324,30.34318 14.0794029,30.35998 13.9522265,30.38798 C13.7061676,30.44258 13.4573441,30.57838 13.2831676,30.73378 C12.3293441,31.69698 11.2994912,32.64758 10.3567265,33.65138 L9.48307941,34.58238 L9.51487353,33.29718 L9.51487353,33.26778 L9.53146176,32.63778 C9.53422647,32.44458 9.51763824,32.28498 9.48584412,32.10998 C9.41396176,31.76978 9.26605,31.44778 9.05593235,31.17338 C8.63431471,30.61338 7.93760882,30.31938 7.26716765,30.33478 L7.26716765,30.33478 C5.75763824,30.35438 4.19834412,29.89238 3.00675588,28.90818 C1.81378529,27.94218 0.934608824,26.57718 0.59455,25.07358 C0.407932353,24.30918 0.380285294,23.51258 0.405167647,22.82938 L0.43005,20.69858 L0.475667647,16.43838 L0.561373529,7.91798 C0.507461765,6.47318 0.872402941,4.91638 1.70043235,3.67738 C2.53122647,2.44118 3.75875588,1.47238 5.17013824,1.00618 C5.86960882,0.77238 6.63957941,0.66458 7.35010882,0.66038 L9.45266765,0.65618 L13.6591676,0.65058 L22.07355,0.63098 L38.89955,0.57778 Z M38.89955,1.46538 L22.07355,1.41218 L13.6591676,1.39258 L9.45266765,1.38698 C8.04957941,1.41498 6.61331471,1.25118 5.39131471,1.68798 C4.12922647,2.09958 3.02610882,2.96338 2.27687353,4.07078 C1.54146176,5.19918 1.18205,6.52358 1.26360882,7.91798 L1.34931471,16.43838 L1.39493235,20.69858 L1.41981471,22.82938 C1.41013824,23.56298 1.46266765,24.19858 1.62578529,24.81178 C1.93957941,26.07458 2.70955,27.20018 3.72005,27.98138 C4.72225588,28.78358 5.98019706,29.22878 7.26716765,29.28338 L7.26716765,30.33478 L7.26716765,29.28338 C8.25831471,29.29878 9.20937353,29.80418 9.79825588,30.58538 C10.0968441,30.97318 10.3097265,31.42958 10.4120206,31.91258 C10.5143147,32.42358 10.4783735,32.86458 10.5004912,33.26778 L10.5018735,33.29718 L9.66002059,32.94298 C10.6636088,31.98398 11.5718147,30.96618 12.5698735,29.97218 C12.9044029,29.66278 13.2804029,29.46258 13.7020206,29.35198 C13.9079912,29.29878 14.1291676,29.27358 14.3365206,29.27638 L14.8521382,29.27918 L16.9118441,29.29458 L25.1492853,29.35198 L33.3867265,29.40238 L37.5047559,29.42618 C38.2069912,29.42338 38.8566971,29.45558 39.5437265,29.39818 C40.1561088,29.32538 40.8002853,29.14758 41.3836382,28.87738 C42.5683147,28.34538 43.5373441,27.38078 44.1607853,26.23978 C44.4635206,25.66298 44.6694912,25.03578 44.7786971,24.39318 C44.9003441,23.76038 44.8616382,23.08698 44.8671676,22.37858 L44.8533441,14.03598 L44.8436676,9.86398 C44.7952853,8.49618 44.9722265,7.01078 44.6086676,5.83058 C44.2616971,4.58178 43.5027853,3.45338 42.4729324,2.67918 C41.4582853,1.88118 40.1768441,1.47798 38.89955,1.46538 L38.89955,1.46538 Z" id="Fill-37"></path>
                                            </g>
                                            <path d="M9.20647059,8.02172 L39.6182353,8.02172" id="Fill-40" fill="#E8E7EE"></path>
                                            <path d="M8.87125,8.32342 C8.87125,8.32342 10.7636912,8.16382 13.6030441,8.04062 C15.0227206,7.99442 16.6787794,7.90902 18.4523382,7.87542 C20.2272794,7.83062 22.1197206,7.82082 24.0121618,7.80682 C25.9046029,7.81382 27.7970441,7.81662 29.5719853,7.85582 C31.3455441,7.88102 33.0016029,7.96222 34.4212794,8.00282 C37.2606324,8.11622 39.1530735,8.27162 39.1530735,8.27162 C39.28025,8.28142 39.3756324,8.39622 39.3659559,8.52502 C39.3562794,8.64262 39.2650441,8.73222 39.1530735,8.74202 C39.1530735,8.74202 37.2606324,8.89602 34.4212794,9.00942 C33.0016029,9.05002 31.3455441,9.13122 29.5719853,9.15782 C27.7970441,9.19562 25.9046029,9.19982 24.0121618,9.20542 C22.1197206,9.19282 20.2272794,9.18162 18.4523382,9.13682 C16.6787794,9.10322 15.0227206,9.01782 13.6030441,8.97302 C10.7636912,8.84982 8.87125,8.68882 8.87125,8.68882 C8.77172059,8.68042 8.69707353,8.59222 8.70536765,8.49142 C8.71366176,8.40042 8.78416176,8.33042 8.87125,8.32342" id="Fill-42" fill="#42457B"></path>
                                            <path d="M9.20647059,13.62172 L34.0888235,13.62172" id="Fill-44" fill="#E8E7EE"></path>
                                            <path d="M8.87125,12.84108 C8.87125,12.84108 10.42225,12.69688 12.7473676,12.59048 C13.9099265,12.55548 15.2673971,12.47428 16.72025,12.46028 C18.1744853,12.44488 19.7241029,12.42948 21.2751029,12.41268 C22.8261029,12.43788 24.3757206,12.46448 25.8299559,12.48828 C27.2828088,12.50788 28.6402794,12.60168 29.8028382,12.64368 C32.1279559,12.76268 33.6789559,12.91808 33.6789559,12.91808 C33.7840147,12.92928 33.8614265,13.02448 33.85175,13.13088 C33.8420735,13.22608 33.7674265,13.29748 33.6789559,13.30588 C33.6789559,13.30588 32.1279559,13.46128 29.8028382,13.58168 C28.6402794,13.62368 27.2828088,13.71608 25.8299559,13.73568 C24.3757206,13.76088 22.8261029,13.78608 21.2751029,13.81128 C19.7241029,13.79588 18.1744853,13.77908 16.72025,13.76368 C15.2673971,13.75108 13.9099265,13.66848 12.7473676,13.63348 C10.42225,13.52848 8.87125,13.38428 8.87125,13.38428 C8.72333824,13.37028 8.61413235,13.23728 8.62795588,13.08748 C8.64039706,12.95448 8.74407353,12.85228 8.87125,12.84108" id="Fill-46" fill="#42457B"></path>
                                            <path d="M9.20647059,17.82172 L32.7064706,17.82172" id="Fill-48" fill="#E8E7EE"></path>
                                            <path d="M8.87125,17.44708 C8.87125,17.44708 10.3697206,17.30988 12.6160441,17.20628 C13.7398971,17.17128 15.0503676,17.09288 16.4548382,17.07608 C17.8579265,17.05788 19.3563971,17.03828 20.8548676,17.01868 C22.3519559,17.03828 23.8504265,17.05648 25.2548971,17.07468 C26.6593676,17.09008 27.9698382,17.17128 29.0923088,17.20628 C31.3400147,17.30848 32.8371029,17.44708 32.8371029,17.44708 C32.9850147,17.46108 33.0942206,17.59268 33.0817794,17.74248 C33.0693382,17.87548 32.9642794,17.97768 32.8371029,17.99028 C32.8371029,17.99028 31.3400147,18.12748 29.0923088,18.23108 C27.9698382,18.26608 26.6593676,18.34728 25.2548971,18.36128 C23.8504265,18.37948 22.3519559,18.39908 20.8548676,18.41728 C19.3563971,18.39908 17.8579265,18.37948 16.4548382,18.36128 C15.0503676,18.34448 13.7398971,18.26468 12.6160441,18.22968 C10.3697206,18.12608 8.87125,17.99028 8.87125,17.99028 C8.72333824,17.97628 8.61413235,17.84328 8.62795588,17.69348 C8.63901471,17.56048 8.74407353,17.45828 8.87125,17.44708" id="Fill-50" fill="#42457B"></path>
                                            <path d="M9.20647059,22.02172 L31.3241176,22.02172" id="Fill-52" fill="#E8E7EE"></path>
                                            <path d="M8.87125,22.05308 C8.87125,22.05308 10.3006029,21.91308 12.44325,21.80808 C13.5145735,21.77308 14.7656029,21.69188 16.1051029,21.67788 C17.4446029,21.66108 18.8739559,21.64288 20.3019265,21.62468 C21.7312794,21.64708 23.1606324,21.66948 24.5001324,21.69048 C25.8396324,21.70728 27.0892794,21.79548 28.1619853,21.83328 C30.3046324,21.94528 31.7339853,22.09228 31.7339853,22.09228 C31.8611618,22.10488 31.9523971,22.21968 31.9399559,22.34848 C31.9288971,22.46048 31.8404265,22.54588 31.7339853,22.55708 C31.7339853,22.55708 30.3046324,22.70408 28.1619853,22.81468 C27.0892794,22.85388 25.8396324,22.94068 24.5001324,22.95748 C23.1606324,22.97848 21.7312794,23.00088 20.3019265,23.02328 C18.8739559,23.00648 17.4446029,22.98828 16.1051029,22.97148 C14.7656029,22.95608 13.5145735,22.87628 12.44325,22.84128 C10.3006029,22.73628 8.87125,22.59628 8.87125,22.59628 C8.72333824,22.58088 8.61551471,22.44788 8.62933824,22.29808 C8.64177941,22.16648 8.74545588,22.06568 8.87125,22.05308" id="Fill-54" fill="#42457B"></path>
                                        </g>
                                        <g id="Group-34" transform="translate(10.000000, 23.000000)">
                                            <path d="M66.7683849,41.0649052 C66.7683849,57.9254741 53.103517,71.5935259 36.2468755,71.5935259 C19.390234,71.5935259 5.72536604,57.9254741 5.72536604,41.0649052 C5.72536604,24.2043362 19.390234,10.5362845 36.2468755,10.5362845 C53.103517,10.5362845 66.7683849,24.2043362 66.7683849,41.0649052" id="Fill-1" fill="#03CAFF"></path>
                                            <path d="M66.6659019,43.5847034 C66.6659019,43.5847034 71.0165434,34.202669 72.3946189,28.7170138 C72.8721283,26.8135138 71.0528453,25.1935138 69.1190717,26.1306 C67.1839019,27.0676862 65.6815623,27.9684621 64.1233736,29.1583241" id="Fill-3" fill="#03CAFF"></path>
                                            <path d="M5.72606415,41.4337345 C5.72606415,41.4337345 1.76217736,48.887131 0.580969811,54.4188724 C0.171875472,56.3377345 2.22712075,57.8278552 3.9472717,56.8851828 C5.83636604,55.8517345 6.60010189,55.3280276 8.49757358,53.8225448" id="Fill-5" fill="#03CAFF"></path>
                                            <path d="M36.2471547,10.5365638 C34.5828528,10.5365638 32.9520604,10.6748224 31.3603623,10.9303914 C45.8922868,13.2710121 56.9950792,25.8693052 56.9950792,41.0651845 C56.9950792,56.2610638 45.8922868,68.8593569 31.3603623,71.198581 C32.9520604,71.4555466 34.5828528,71.5938052 36.2471547,71.5938052 C53.1037962,71.5938052 66.7686642,57.9257534 66.7686642,41.0651845 C66.7686642,24.2046155 53.1037962,10.5365638 36.2471547,10.5365638" id="Fill-7" fill="#00B7F6"></path>
                                            <path d="M66.0824189,41.0649052 C66.0824189,41.0649052 66.0489094,40.3331121 65.984683,38.9616983 C65.984683,38.2718017 65.8660038,37.4338707 65.7082302,36.4493017 C65.6272491,35.9591121 65.5755887,35.4242328 65.4555132,34.8656121 C65.3158906,34.3125776 65.1664943,33.7246293 65.0087208,33.1031638 C64.3203811,30.6452328 63.2452868,27.669181 61.2542679,24.6833534 C59.3009472,21.6961293 56.5475887,18.6293017 52.8852868,16.1560086 C49.2341547,13.7078534 44.6517396,11.8769741 39.6686075,11.2610948 C38.4217774,11.1465776 37.0534755,11.0544052 35.8066453,11.0655776 C34.5109472,11.1493707 33.1887208,11.1381983 31.8818528,11.4021466 C29.2387962,11.7219569 26.6320415,12.5738534 24.0964943,13.6464052 C21.5595509,14.7454914 19.2013245,16.3068362 16.9924943,18.0846466 C14.819966,19.9225086 12.9224943,22.1067155 11.286117,24.4934224 C9.69581509,26.9192328 8.48389057,29.5950259 7.59589057,32.3825431 C6.76513585,35.2161466 6.39932453,38.0567328 6.33230566,41.0956293 C6.40770189,43.9711293 6.7888717,46.9443879 7.63079623,49.7360948 C8.52856981,52.5180259 9.75026792,55.1826466 11.3461547,57.5958879 C12.988117,59.9714224 14.8911736,62.1388707 17.058117,63.9655603 C19.2655509,65.7308017 21.6181925,67.2795776 24.1481547,68.3688879 C26.6669472,69.4288707 29.2904566,70.2737845 31.8846453,70.5810259 C33.1510226,70.8365948 34.5193245,70.8282155 35.8317774,70.9092155 C37.0744189,70.9134052 38.3882679,70.8338017 39.628117,70.7234741 C44.6349849,70.1215603 49.1713245,68.3172155 52.8280415,65.8872155 C56.4847585,63.4334741 59.2423057,60.3861983 61.2026075,57.4115431 C63.2006075,54.439681 64.2840792,51.4720086 64.9807962,49.0196638 C65.139966,48.3995948 65.2907585,47.8116466 65.4331736,47.2586121 C65.5546453,46.704181 65.6063057,46.1790776 65.688683,45.6944741 C65.8492491,44.7266638 65.972117,43.8971121 65.9763057,43.180681 C66.046117,41.7785431 66.0838151,41.0299914 66.0838151,41.0299914 L66.0824189,41.0649052 Z M67.4535132,41.099819 C67.4535132,41.099819 67.4158151,41.8483707 67.3432113,43.2505086 C67.3404189,43.9445948 67.2161547,44.8286121 67.0444189,45.8718362 C66.9578528,46.3899569 66.8978151,46.9569569 66.7693623,47.5407155 C66.6213623,48.1188879 66.4621925,48.7333707 66.2960415,49.3827672 C65.5658151,51.9482328 64.4250981,55.0499741 62.3349472,58.1559052 C60.2838906,61.2632328 57.3992868,64.443181 53.5764189,67.0044569 C49.7535509,69.5405948 45.0077774,71.4245431 39.7775132,72.0446121 C38.4608717,72.1605259 37.1581925,72.244319 35.7647585,72.2331466 C34.4425321,72.1479569 33.1244943,72.1591293 31.7310604,71.8881983 C28.9483811,71.5488362 26.2634377,70.6704052 23.6217774,69.5545603 C20.9857019,68.4107845 18.5325321,66.792181 16.2385321,64.9431466 C13.9822302,63.0354569 12.0037774,60.7716466 10.3003811,58.2913707 C8.64166415,55.7747845 7.37528679,52.99425 6.44819245,50.0950086 C5.5783434,47.1566638 5.18460755,44.1498879 5.11898491,41.034181 C5.19298491,38.0818707 5.60207925,34.943819 6.48309811,32.0459741 C7.41996604,29.1537155 8.69611698,26.3829569 10.3604189,23.8775431 C12.0694,21.4098362 14.0534377,19.164181 16.3041547,17.2662672 C18.5967585,15.4284052 21.0443434,13.8223707 23.6734377,12.6897672 C28.8953245,10.375681 34.5919283,9.68019828 39.7384189,10.2290431 C44.9924189,10.8365431 49.6907208,12.6939569 53.5177774,15.2119397 C57.3364566,17.7522672 60.2238528,20.9154569 62.2818906,24.008819 C64.3790226,27.1007845 65.5295132,30.1941466 66.268117,32.7554224 C66.4370604,33.4034224 66.5962302,34.0165086 66.7470226,34.5932845 C66.8768717,35.17425 66.9369094,35.7328707 67.0262679,36.2440086 C67.1994,37.2718707 67.3278528,38.1475086 67.334834,38.8667328 C67.4130226,40.3009914 67.4549094,41.0649052 67.4549094,41.0649052 L67.4535132,41.099819 Z" id="Fill-9" fill="#42457B"></path>
                                            <path d="M23.6392302,24.2719293 C23.6392302,24.2719293 23.9394189,23.7440328 24.4420604,23.00805 C24.9460981,22.266481 25.7042491,21.3377741 26.5685132,20.4663259 C27.4327774,19.6018603 28.4394566,18.8002397 29.3623623,18.3659121 C29.8328906,18.160619 30.2377962,18.0167741 30.5519472,17.9720845 C30.859117,17.9232052 31.0350415,17.8952741 31.0350415,17.8952741 C31.6633434,17.796119 32.2539472,18.2262569 32.3530792,18.8561017 C32.4424377,19.4231017 32.1017585,19.957981 31.5739849,20.1311534 L31.377117,20.1953948 C31.377117,20.1953948 31.2710038,20.2303086 31.0839094,20.2917569 C30.8968151,20.322481 30.6259472,20.4411879 30.2838717,20.5333603 C29.9473811,20.671619 29.5313057,20.8168603 29.0970792,21.0444983 C28.6656453,21.279119 28.2048906,21.5528431 27.7608906,21.8712569 C26.8645132,22.4983086 26.0351547,23.2580328 25.4208151,23.8389983 C24.8022868,24.4269466 24.4322868,24.8403259 24.4322868,24.8403259 C24.2521736,25.0428259 23.9422113,25.060981 23.7397585,24.8808259 C23.563834,24.7244121 23.5275321,24.4688431 23.6392302,24.2719293" id="Fill-11" fill="#42457B"></path>
                                            <path d="M51.1257623,26.15895 C51.1257623,26.15895 50.7501774,25.75395 50.1218755,25.1799672 C49.4991585,24.6129672 48.6530453,23.8741914 47.7441019,23.2666914 C47.2931208,22.9566569 46.8267811,22.6927086 46.3897623,22.4678638 C45.9485547,22.2500017 45.5324792,22.1075534 45.1890075,21.9776741 C44.8413472,21.8910879 44.5648943,21.7821569 44.3736113,21.757019 C44.1823283,21.70395 44.0720264,21.6732259 44.0720264,21.6732259 L43.8891208,21.62295 C43.2999132,21.46095 42.9536491,20.8506569 43.1156113,20.2613121 C43.2650075,19.7222431 43.7871962,19.3870707 44.3261396,19.4582948 C44.3261396,19.4582948 44.5006679,19.4820362 44.8064415,19.5211397 C45.1191962,19.5560534 45.5268943,19.6845362 46.0016113,19.868881 C46.4637623,20.0657948 46.9580264,20.3576741 47.4522906,20.69145 C47.9353849,21.0363983 48.4254604,21.4218466 48.8750453,21.8366224 C49.7784038,22.6661741 50.5756491,23.5627603 51.1159887,24.2777948 C51.6521396,24.9872431 51.9788566,25.5025707 51.9788566,25.5025707 C52.1380264,25.7553466 52.0626302,26.0891224 51.8113094,26.2483293 C51.5879132,26.389381 51.2988943,26.3460879 51.1257623,26.15895" id="Fill-13" fill="#42457B"></path>
                                            <path d="M34.8132302,41.2625172 C34.8132302,41.2625172 35.8087396,41.5907069 37.2412679,42.2163621 C37.9519472,42.5417586 38.789683,42.9062586 39.6623245,43.3699138 C40.0979472,43.605931 40.5517208,43.8433448 41.0040981,44.1352241 C41.2288906,44.2734828 41.4620604,44.4368793 41.6966264,44.6058621 L41.9870415,44.8446724 C42.0303245,44.8907586 42.1573811,44.9466207 41.9353811,44.8265172 C41.7957585,44.7678621 41.5960981,44.7776379 41.4676453,44.8307069 C41.2107396,44.9563966 41.2568151,45.0318103 41.2679849,44.967569 C41.2875321,44.9368448 41.3210415,44.8530517 41.3461736,44.7664655 C41.3992302,44.5863103 41.4439094,44.3684483 41.4732302,44.145 C41.5318717,43.6967069 41.5737585,43.2246724 41.5849283,42.7693966 C41.6044755,41.8546552 41.589117,40.9832069 41.4955698,40.2556034 C41.4020226,39.528 41.3070792,38.9274828 41.1786264,38.5378448 C41.0613434,38.1426207 40.9677962,37.9373276 40.9677962,37.9373276 C40.8658717,37.7124828 40.9650038,37.4457414 41.1911925,37.3437931 C41.3754943,37.26 41.5863245,37.3102759 41.7133811,37.4541207 L41.718966,37.4611034 C41.718966,37.4611034 41.9172302,37.6873448 42.1531925,38.1272586 C42.3807774,38.5671724 42.6656075,39.2081897 42.8513057,40.0056207 C43.0370038,40.8016552 43.2115321,41.7359483 43.2464377,42.7582241 C43.2604,43.2707586 43.2701736,43.8028448 43.2003623,44.3642586 C43.1696453,44.643569 43.1221736,44.9326552 43.0384,45.2482759 C42.9937208,45.4088793 42.9448528,45.5708793 42.847117,45.7691897 C42.7521736,45.9381724 42.6362868,46.238431 42.1462113,46.4744483 C41.9046642,46.5861724 41.5584,46.5917586 41.3042868,46.4856207 C40.9552302,46.3292069 40.9859472,46.2970862 40.9259094,46.2649655 L40.6229283,46.0107931 C40.4400226,45.8767241 40.2557208,45.7412586 40.0504755,45.6113793 C39.6497585,45.3502241 39.2364755,45.0862759 38.8301736,44.8432759 C38.0077962,44.3502931 37.2412679,43.8908276 36.5836453,43.497 C35.2586264,42.7079483 34.3873811,42.1493276 34.3873811,42.1493276 C34.1584,42.0012931 34.0913811,41.6940517 34.2393811,41.4650172 C34.3636453,41.2708966 34.6037962,41.1940862 34.8132302,41.2625172" id="Fill-15" fill="#42457B"></path>
                                            <path d="M25.0174453,31.5820397 C25.0118604,31.5960052 25.1054075,31.3739534 25.2701623,31.0834707 C25.4405019,30.7846086 25.6988038,30.3684362 26.0799736,29.91735 C26.4611434,29.4676603 26.970766,28.9746776 27.6381623,28.5962121 C27.9718604,28.4076776 28.3432566,28.2596431 28.7342,28.1521086 C29.1460868,28.0599362 29.504917,28.0152466 29.979634,28.0278155 C30.1611434,28.0501603 30.3258981,28.0571431 30.5213698,28.0906603 C30.7308038,28.1423328 30.9542,28.1842293 31.1426906,28.2554534 C31.5196717,28.3965052 31.8701245,28.5780569 32.1717094,28.8001086 C32.7790679,29.2358328 33.2146906,29.7651259 33.5330302,30.2357638 C33.8513698,30.7091948 34.0566151,31.13235 34.1878604,31.4340052 C34.3191057,31.7356603 34.3805396,31.9283845 34.3805396,31.9283845 C34.4391811,32.1155224 34.3358604,32.3166259 34.1473698,32.375281 C33.9672566,32.4325397 33.7731811,32.3361776 33.7061623,32.1602121 C33.7061623,32.1602121 33.6503132,32.0135741 33.5162755,31.7482293 C33.3808415,31.4856776 33.1714075,31.1127983 32.865634,30.7119879 C32.5612566,30.3139707 32.1563509,29.8866259 31.650917,29.5710052 C31.4023887,29.4076086 31.1231434,29.2889017 30.8355208,29.1981259 C30.6931057,29.1534362 30.5604642,29.1450569 30.4250302,29.1087466 C30.2700491,29.0905914 30.0745774,29.0905914 29.9014453,29.079419 C29.6585019,29.094781 29.3094453,29.1450569 29.0371811,29.22885 C28.7537472,29.3280052 28.4856717,29.4522983 28.2441245,29.6087121 C27.759634,29.9243328 27.3756717,30.3377121 27.0880491,30.7217638 C26.7990302,31.1086086 26.6035585,31.468919 26.4792943,31.7216948 C26.3522377,31.9842466 26.3159358,32.0973672 26.3103509,32.1099362 C26.1637472,32.4674534 25.7560491,32.6378328 25.4000113,32.4925914 C25.0425774,32.34735 24.8722377,31.9395569 25.0174453,31.5820397" id="Fill-17" fill="#42457B"></path>
                                            <path d="M39.8302906,31.7633121 C39.8302906,31.7633121 40.0634604,31.0454845 40.7238755,30.1363293 C41.0561774,29.6852431 41.5085547,29.1866741 42.1201019,28.7844672 C42.4258755,28.5847603 42.7721396,28.4199672 43.1435358,28.2914845 C43.5316868,28.1797603 43.8849321,28.1099328 44.3442906,28.0973638 C44.5271962,28.1057431 44.6933472,28.1001569 44.8888189,28.1211052 C45.0968566,28.1602086 45.3216491,28.1881397 45.5143283,28.2481914 C45.8996868,28.3655017 46.2668943,28.5275017 46.5866302,28.7313983 C47.233083,29.1363983 47.7161774,29.6489328 48.0764038,30.1111914 C48.435234,30.5776397 48.6767811,31.0007948 48.8359509,31.3052431 C48.9923283,31.6082948 49.0677245,31.8024155 49.0719132,31.816381 C49.1989698,32.180881 49.0048943,32.5788983 48.6404792,32.7045879 C48.2760642,32.8302776 47.8781396,32.6375534 47.7524792,32.2730534 C47.7622528,32.3121569 47.5877245,31.6585707 47.0613472,30.8360017 C46.7988566,30.4296052 46.4414226,29.9882948 45.975083,29.6377603 C45.7447057,29.4603983 45.4822151,29.3193466 45.2015736,29.2062259 C45.0647434,29.1489672 44.9348943,29.128019 44.7980642,29.0791397 C44.6416868,29.047019 44.4490075,29.03445 44.2758755,29.0121052 C44.0189698,29.0009328 43.6615358,29.0246741 43.3669321,29.0889155 C43.0639509,29.168519 42.7707434,29.2746569 42.5012717,29.4212948 C41.9609321,29.7131741 41.5197245,30.1195707 41.183234,30.5036224 C40.5088566,31.2842948 40.2365925,31.9295017 40.2365925,31.9295017 C40.1891208,32.0398293 40.0606679,32.0928983 39.9489698,32.0454155 C39.8442528,32.0007259 39.7911962,31.8834155 39.8261019,31.7772776 L39.8302906,31.7633121 Z" id="Fill-19" fill="#42457B"></path>
                                            <path d="M66.2780302,43.4056655 C66.2780302,43.4056655 66.9552,41.8582862 67.8976528,39.5050966 C68.8345208,37.1533034 70.1190491,34.0194414 71.1145585,30.8199414 C71.3547094,30.0378724 71.6032377,29.1775966 71.7596151,28.4681483 C71.8866717,27.8383034 71.6590868,27.2517517 71.2304453,26.9068034 C70.8032,26.5590621 70.2391245,26.5004069 69.736483,26.6638034 C69.5172755,26.7420103 69.1835774,26.9026138 68.8805962,27.0548379 C68.5832,27.2070621 68.2955774,27.3550966 68.0191245,27.4975448 C66.9272755,28.0868897 66.0378792,28.6022172 65.4277283,28.9932517 C64.8161811,29.3856828 64.4671245,29.609131 64.4671245,29.609131 L63.7787849,28.7069586 C63.7787849,28.7069586 64.1138792,28.4318379 64.6988981,27.9500276 C65.3006717,27.487769 66.1914642,26.8509414 67.337766,26.2350621 C67.6253887,26.0828379 67.9241811,25.9250276 68.2341434,25.761631 C68.5427094,25.6052172 68.8401057,25.437631 69.310634,25.2826138 C70.1846717,25.0060966 71.3295774,25.1415621 72.1268226,25.842631 C72.9408226,26.5073897 73.3094264,27.7014414 73.0762566,28.702769 C72.8556528,29.6175103 72.6057283,30.3800276 72.3334642,31.2123724 C71.2304453,34.4593552 69.9082189,37.5904241 68.8596528,39.9170793 C67.8055019,42.2381483 67.0543321,43.7645793 67.0543321,43.7645793 L66.2780302,43.4056655 Z" id="Fill-21" fill="#42457B"></path>
                                            <path d="M33.7402302,10.6936759 C33.7402302,10.6936759 33.2012868,9.87250345 32.2211358,8.72872759 C31.2451736,7.59612414 29.841966,6.16326207 28.2558528,4.99295172 C27.8481547,4.71922759 27.4627962,4.41058966 27.0467208,4.17038276 C26.6320415,3.93017586 26.2410981,3.66064138 25.8264189,3.4749 C25.4187208,3.27658966 25.0361547,3.06012414 24.6452113,2.92884828 C24.2570604,2.79198621 23.9080038,2.60903793 23.5589472,2.53362414 C22.8747962,2.32693448 22.3023434,2.19286552 21.8918528,2.15236552 C21.4869472,2.08812414 21.2551736,2.05041724 21.2551736,2.05041724 L21.1448717,2.03226207 C20.6129094,1.94707241 20.252683,1.4471069 20.3378528,0.916417241 C20.4230226,0.385727586 20.9214755,0.0240206897 21.4534377,0.109210345 C21.4687962,0.112003448 21.4883434,0.114796552 21.5050981,0.118986207 C21.5050981,0.118986207 21.7731736,0.177641379 22.2437019,0.278193103 C22.7212113,0.357796552 23.3774377,0.55052069 24.143966,0.832624138 C24.5390981,0.945744828 24.9216642,1.16779655 25.3475132,1.35074483 C25.7789472,1.5281069 26.1894377,1.78786552 26.6264566,2.03505517 C27.0718528,2.26967586 27.4823434,2.5839 27.917966,2.87438276 C28.3535887,3.16346897 28.7487208,3.5154 29.1689849,3.8366069 C30.7914,5.18846897 32.1652868,6.77076207 33.1133245,8.00950345 C34.0543811,9.24405517 34.5863434,10.1629862 34.5863434,10.1629862 C34.7273623,10.4004 34.6505698,10.7076414 34.4132113,10.8486931 C34.1856264,10.9841586 33.8882302,10.9101414 33.7402302,10.6936759" id="Fill-23" fill="#42457B"></path>
                                            <path d="M27.2839396,12.1603345 C27.2839396,12.1603345 26.9949208,11.7371793 26.4713358,11.1478345 C25.9505434,10.5654724 25.2049585,9.82948966 24.3700151,9.23735172 C23.9497509,8.94686897 23.5211094,8.67593793 23.0980528,8.47483448 C22.8858264,8.37707586 22.6875623,8.26954138 22.4851094,8.2053 C22.2840528,8.13966207 22.1039396,8.04748966 21.9252226,8.01397241 C21.224317,7.80448966 20.7454113,7.81426552 20.7482038,7.79192069 C20.3502792,7.74024828 20.0696377,7.37574828 20.1199019,6.97773103 C20.1715623,6.57831724 20.5359774,6.29761034 20.9339019,6.34928276 C20.9339019,6.34928276 21.0805057,6.3828 21.3346189,6.44145517 C21.5929208,6.48893793 21.946166,6.59786897 22.3580528,6.75567931 C22.5702792,6.82131724 22.7741283,6.94281724 23.0017132,7.04476552 C23.2320906,7.14392069 23.4512981,7.28636897 23.6830717,7.42183448 C24.1452226,7.69835172 24.5962038,8.04469655 25.0262415,8.40640345 C26.7436,9.87557586 27.8452226,11.8084034 27.8452226,11.8084034 C27.9359774,11.9676103 27.8815245,12.1701103 27.7223547,12.2608862 C27.5715623,12.3474724 27.3802792,12.3013862 27.2839396,12.1603345" id="Fill-25" fill="#42457B"></path>
                                            <path d="M28.8647472,70.6077 L27.7756906,80.7215276 C27.7575396,80.8905103 27.6053509,81.0120103 27.4364075,80.9938552 C27.2716528,80.9770966 27.1515774,80.8318552 27.1627472,80.6684586 L27.8482943,70.5183207 C27.8678415,70.2376138 28.1107849,70.0253379 28.3914264,70.0434931 C28.6734642,70.0630448 28.8856906,70.3060448 28.8661434,70.5881483 C28.8661434,70.5937345 28.8647472,70.6021138 28.8647472,70.6077" id="Fill-27" fill="#42457B"></path>
                                            <path d="M44.7292302,70.5234879 L45.3491547,80.6694362 C45.3589283,80.8412121 45.2290792,80.9892466 45.0573434,80.9990224 C44.8897962,81.0101948 44.7459849,80.8845052 44.7292302,80.7197121 L43.7337208,70.6030914 C43.7057962,70.3279707 43.9068528,70.0835741 44.1819094,70.0570397 C44.4555698,70.0291086 44.7013057,70.2302121 44.727834,70.5053328 C44.727834,70.510919 44.7292302,70.5179017 44.7292302,70.5234879" id="Fill-29" fill="#42457B"></path>
                                            <g id="Group-33" transform="translate(0.000000, 40.500000)">
                                                <mask id="mask-2" fill="white">
                                                    <use xlink:href="#path-1"></use>
                                                </mask>
                                                <g id="Clip-32"></g>
                                                <path d="M6.02443774,1.09140517 C6.02443774,1.09140517 5.32073962,2.45723276 4.37968302,4.56742241 C3.45119245,6.67621552 2.26300377,9.53076724 1.46855094,12.4719052 C1.29123019,13.1967155 1.04130566,13.9913534 1.07202264,14.5485776 C1.13066415,15.1169741 1.49926792,15.6295086 1.9893434,15.8864741 C2.48221132,16.13925 3.04489057,16.1532155 3.49447547,15.9381466 C3.98315472,15.6951466 4.58213585,15.3278534 5.04009811,15.04575 C5.99511698,14.450819 6.7309283,13.87125 7.25730566,13.4550776 C7.77809811,13.033319 8.07689057,12.7917155 8.07689057,12.7917155 L8.91741887,13.8516983 C8.91741887,13.8516983 8.6074566,14.0877155 8.06432453,14.5010948 C7.51979623,14.9088879 6.71696604,15.5066121 5.68515472,16.1099224 C5.14481509,16.4157672 4.67009811,16.7048534 3.95941887,17.0344397 C3.19707925,17.3710086 2.21972075,17.3221293 1.43923019,16.8780259 C0.658739623,16.4395086 0.0695320755,15.5890086 0.00251320755,14.628181 C-0.00726037736,14.3558534 0.00949433962,14.1114569 0.0444,13.9466638 C0.0862867925,13.6799224 0.139343396,13.5444569 0.185418868,13.3377672 C0.277569811,12.9537155 0.37949434,12.5738534 0.496777358,12.198181 C1.40013585,9.18721552 2.67628679,6.34662931 3.67179623,4.24202586 C4.67707925,2.14021552 5.42824906,0.775784483 5.42824906,0.775784483 L6.02443774,1.09140517 Z" id="Fill-31" fill="#42457B" mask="url(#mask-2)"></path>
                                            </g>
                                        </g>
                                        <g id="compass" transform="translate(29.000000, 40.000000)"></g>
                                    </g>
                                </g>
                            </g>
                        </g>
                    </g>
                </g>
            </g>
        </g>
    </g>
</svg>