<?xml version="1.0" encoding="UTF-8"?>
<svg width="102px" height="99px" viewBox="0 0 102 99" version="1.1" xmlns="http://www.w3.org/2000/svg" xmlns:xlink="http://www.w3.org/1999/xlink">
    <!-- Generator: Sketch 46.2 (44496) - http://www.bohemiancoding.com/sketch -->
    <title>communicate</title>
    <desc>Created with Sketch.</desc>
    <defs>
        <circle id="path-1" cx="49.5" cy="49.5" r="49.5"></circle>
    </defs>
    <g id="Components" stroke="none" stroke-width="1" fill="none" fill-rule="evenodd">
        <g id="Homepage" transform="translate(-263.000000, -1877.000000)">
            <g id="Feedback-Management" transform="translate(0.000000, 1272.000000)">
                <g id="Illustration" transform="translate(128.000000, 231.000000)">
                    <g id="Group-38">
                        <g id="Group-7" transform="translate(0.000000, 374.000000)">
                            <g id="Group-3">
                                <g id="Group-31">
                                    <g id="communicate" transform="translate(135.000000, 0.000000)">
                                        <g id="Group-17" transform="translate(3.000000, 0.000000)">
                                            <mask id="mask-2" fill="white">
                                                <use xlink:href="#path-1"></use>
                                            </mask>
                                            <use id="Oval" fill="#FAF7FD" xlink:href="#path-1"></use>
                                            <g id="Page-1" mask="url(#mask-2)">
                                                <g transform="translate(22.000000, 9.000000)">
                                                    <g id="Group-53" transform="translate(0.000000, 15.681028)">
                                                        <path d="M41.46285,64.6572472 L30.9764,58.2867889 C30.4707,57.9747611 29.90845,57.80765 29.315,57.8043861 L28.64095,57.8011222 C26.9945,57.7919833 25.63535,59.0179 25.41955,60.6113306 C25.2031,59.0179 23.842,57.7919833 22.19555,57.8011222 L21.5137,57.8043861 C20.92025,57.80765 20.3398,57.9747611 19.83475,58.2867889 L9.26965,64.78715 C7.54455,65.8531361 6.45255,67.7409694 6.45255,69.775025 L6.45255,75.7081222 L44.1662,75.7081222 L44.1662,69.6451222 C44.1662,67.6110667 43.18795,65.7225806 41.46285,64.6572472" id="Fill-1" fill="#B7DBF9"></path>
                                                        <path d="M41.238535,65.0296569 L33.014735,59.9197125 L30.951635,58.6546292 C30.607135,58.4307264 30.310735,58.2910319 29.946085,58.2016014 C29.598335,58.1089069 29.233685,58.1232681 28.815735,58.1186986 L28.664935,58.1173931 L28.527785,58.1213097 C28.426385,58.1245736 28.324335,58.1278375 28.245035,58.1428514 C28.078635,58.1617819 27.891435,58.2002958 27.721135,58.2583931 C27.374685,58.3693653 27.049035,58.5469208 26.766285,58.7780042 C26.198835,59.2388653 25.809485,59.9216708 25.716535,60.6521292 C25.695735,60.8166292 25.545585,60.9328236 25.381785,60.9119347 C25.245935,60.8943097 25.143235,60.7885597 25.123735,60.6586569 L25.122435,60.6521292 C25.034035,60.0646292 24.781185,59.4980181 24.374285,59.0632681 C23.972585,58.6265597 23.441535,58.3073514 22.862385,58.1833236 C22.564685,58.1160875 22.298835,58.1017264 21.958235,58.1102125 C21.620885,58.1141292 21.317985,58.1017264 21.031985,58.1572125 C20.740785,58.2081292 20.458035,58.3047403 20.194785,58.4398653 C19.947785,58.5723792 19.646835,58.7721292 19.375785,58.9353236 C17.150835,60.3113792 14.918735,61.6756847 12.708085,63.0752403 L9.397635,65.1589069 C8.867885,65.5094486 8.426535,65.9069903 8.053435,66.4031014 C7.679035,66.8861569 7.394335,67.4338375 7.201935,68.0082819 C7.008885,68.5827264 6.925035,69.1865458 6.932835,69.7884069 L6.979635,71.7565319 L7.102485,75.6927819 L7.102485,75.7077958 L6.452485,75.0556708 L44.151185,75.0556708 L44.166135,75.0556708 L43.516135,75.7077958 L43.700085,69.7094208 C43.706585,69.4848653 43.703335,69.2126569 43.687085,69.0076847 C43.668885,68.7811708 43.637035,68.5468236 43.592185,68.3196569 C43.500535,67.8640181 43.352985,67.4175181 43.142385,67.0010458 C42.934385,66.5832681 42.671785,66.1922542 42.361085,65.8430181 C42.202485,65.6706847 42.037385,65.5042264 41.858635,65.3527819 C41.676635,65.2046014 41.487485,65.0668653 41.289885,64.9395736 L41.635685,64.3749208 C41.859935,64.5146153 42.075735,64.6660597 42.283735,64.8299069 C42.487185,64.9989764 42.685435,65.1739208 42.871335,65.3638792 C43.239885,65.7451014 43.557085,66.1772403 43.814485,66.6439764 C44.069285,67.1113653 44.271435,67.6087819 44.409235,68.1257819 C44.476835,68.3855875 44.529485,68.6447403 44.567835,68.9149903 C44.606185,69.2067819 44.621135,69.4339486 44.632185,69.7094208 L44.816135,75.7077958 C44.827185,76.0576847 44.553535,76.3501292 44.205135,76.3605736 L44.188885,76.3612264 L44.166135,76.3612264 L44.151185,76.3612264 L6.452485,76.3612264 L6.440135,76.3612264 C6.087835,76.3612264 5.802485,76.0740042 5.802485,75.7201986 L5.802485,75.7077958 L5.803135,75.6927819 L5.925335,71.7565319 L5.972135,69.7884069 C5.989685,69.0794903 6.119035,68.3699208 6.369285,67.7099625 C6.619535,67.0500042 6.973135,66.4324764 7.422285,65.8965458 C7.859735,65.3625736 8.410935,64.8801708 8.979685,64.5224486 L12.349935,62.4877403 C14.595685,61.1456292 16.819985,59.7689208 19.050785,58.4026569 C19.340685,58.2303236 19.583135,58.0638653 19.912685,57.8869625 C20.231185,57.7237681 20.573735,57.6075736 20.926685,57.5475181 C21.285485,57.4809347 21.639735,57.4979069 21.954985,57.4939903 C22.266335,57.4855042 22.658935,57.5024764 22.997585,57.5853792 C23.697635,57.7387819 24.339185,58.1252264 24.820835,58.6526708 C25.308335,59.1788097 25.613835,59.8622681 25.716535,60.5705319 L25.122435,60.5705319 C25.241385,59.6931986 25.698335,58.8687403 26.378885,58.3053931 C26.717535,58.0227403 27.110135,57.8040597 27.530035,57.6656708 C27.740635,57.5938653 27.950585,57.5455597 28.183935,57.5174903 C28.303535,57.4979069 28.402985,57.4952958 28.502435,57.4913792 L28.667535,57.4855042 L28.818985,57.4855042 C29.204435,57.4868097 29.654885,57.4639625 30.092985,57.5749347 C30.516135,57.6650181 30.957485,57.8797819 31.288985,58.0945458 L33.363135,59.3420042 L41.687035,64.2848375 L41.238535,65.0296569 Z" id="Fill-3" fill="#586978"></path>
                                                        <path d="M36.12115,65.9105806 L29.12585,60.0838861 C28.7898,59.8038444 28.405,59.6550111 28.01045,59.6517472 L27.5574,59.6484833 C26.46215,59.64065 25.55605,60.739275 25.4124,62.1682056 C25.26875,60.739275 24.36135,59.64065 23.26675,59.6484833 L22.81305,59.6517472 C22.4185,59.6550111 22.03175,59.8038444 21.6957,60.0838861 L14.68155,65.9105806 C13.5343,66.8655944 12.81865,68.5582472 12.81865,70.3814556 L12.81865,75.6271778 L37.9613,75.6271778 L37.9613,70.3814556 C37.9613,68.5582472 37.2684,66.8655944 36.12115,65.9105806" id="Fill-5" fill="#E9F6FF"></path>
                                                        <path d="M36.536045,65.4080722 C36.915645,65.7279333 37.215295,66.1261278 37.421995,66.5563083 C37.633895,66.9845306 37.758045,67.4388639 37.865945,67.8781833 C37.972545,68.3194611 38.055095,68.7555167 38.137645,69.1909194 C38.176645,69.4102528 38.205895,69.6263222 38.222145,69.8534889 C38.244245,70.0878361 38.244895,70.2791 38.249445,70.5095306 C38.290395,72.2152389 38.376195,73.9216 38.611495,75.6273083 L38.700545,76.2768222 L37.961495,76.2800861 L37.949145,76.2800861 L12.818845,76.3721278 L12.029745,76.3747389 L12.077195,75.6273083 L12.077845,75.6149056 C12.198745,74.5861278 12.270245,73.5580028 12.345645,72.5298778 L12.436645,70.9873639 C12.465895,70.4840722 12.473045,69.9363917 12.573795,69.4050306 C12.772045,68.3521 13.158795,67.3194056 13.839995,66.4825444 C14.166295,66.0517111 14.600495,65.70835 14.989845,65.3963222 L16.182595,64.4249889 C17.757545,63.1102944 19.333795,61.7969056 20.887945,60.4574056 L21.473595,59.9580306 C21.669245,59.7830861 21.920795,59.604225 22.194445,59.5050028 C22.458995,59.392725 22.799595,59.3751 23.034245,59.3744472 C23.268245,59.3594333 23.608845,59.3600861 23.887045,59.4553917 C24.465545,59.6368639 24.919895,60.0605167 25.224745,60.5396556 C25.532195,61.0233639 25.708995,61.57235 25.781145,62.130475 L25.044045,62.130475 C25.099945,61.4757389 25.296245,60.8157806 25.695995,60.2465583 C25.896195,59.9639056 26.150345,59.7054056 26.464295,59.5108778 C26.618345,59.4110028 26.792545,59.333975 26.973895,59.2771833 C27.057745,59.2438917 27.174095,59.2275722 27.275495,59.2079889 C27.381445,59.1903639 27.433445,59.1923222 27.514695,59.1838361 L27.993095,59.1733917 C28.175745,59.1688222 28.379195,59.1910167 28.564445,59.2393222 C28.751645,59.2876278 28.931045,59.3607389 29.096145,59.4521278 C29.180645,59.4997806 29.254745,59.5448222 29.338595,59.6055306 L29.535545,59.7563222 L30.948645,60.8712667 C32.823895,62.3680861 34.684195,63.8825306 36.536045,65.4080722 M35.705995,66.41335 C33.871045,64.8675722 32.044545,63.31135 30.232995,61.7375028 L28.880995,60.5487944 L28.727595,60.4169333 C28.691845,60.3875583 28.639845,60.3510028 28.594995,60.3229333 C28.502045,60.2635306 28.403245,60.2171833 28.302495,60.1845444 C28.199145,60.1525583 28.102945,60.1342806 27.986595,60.1303639 L27.566695,60.11535 C27.499095,60.1192667 27.400295,60.1160028 27.358695,60.1251417 C27.313845,60.1368917 27.279395,60.1310167 27.222195,60.1512528 C27.116245,60.1780167 27.010295,60.215225 26.910195,60.273975 C26.707395,60.3842944 26.520845,60.5487944 26.363545,60.7478917 C26.046345,61.1467389 25.853295,61.6683083 25.781145,62.2055444 L25.044045,62.2055444 C25.006995,61.742725 24.883495,61.2838222 24.657945,60.8875861 C24.433695,60.4926556 24.100895,60.1630028 23.702445,60.015475 C23.495095,59.9391 23.315045,59.9253917 23.038145,59.9260444 C22.763195,59.9169056 22.582495,59.9169056 22.364095,59.9893639 C22.152195,60.0585583 21.966945,60.1649611 21.777145,60.32685 L21.179145,60.8105583 C19.577545,62.0932667 17.997395,63.4014333 16.416595,64.7082944 L15.242045,65.7031278 C14.841645,66.0419194 14.463995,66.34285 14.184495,66.7488778 C13.613145,67.5459194 13.275145,68.5126833 13.192595,69.4905444 C13.145795,69.9788222 13.171145,70.4631833 13.200395,70.9873639 L13.291395,72.5298778 C13.367445,73.5580028 13.438945,74.5861278 13.559845,75.6149056 L13.560495,75.6273083 L12.818845,74.8824889 L37.949145,74.9745306 L37.961495,74.9745306 L37.311495,75.6273083 C37.546145,73.9216 37.632595,72.2152389 37.672895,70.5095306 C37.673545,70.3136972 37.675495,70.0780444 37.659895,69.8874333 C37.650145,69.6896417 37.627395,69.4814056 37.595545,69.28035 C37.539645,68.874975 37.407045,68.48135 37.214645,68.1242806 C37.024195,67.7659056 36.766145,67.4519194 36.506145,67.171225 C36.241595,66.8924889 35.978345,66.6405167 35.705995,66.41335" id="Fill-7" fill="#586978"></path>
                                                        <path d="M31.41515,60.880275 C31.41515,64.2362056 28.6884,66.9563306 25.3253,66.9563306 C21.96155,66.9563306 19.2348,64.2362056 19.2348,60.880275 C19.2348,57.5243444 21.96155,54.8042194 25.3253,54.8042194 C28.6884,54.8042194 31.41515,57.5243444 31.41515,60.880275" id="Fill-9" fill="#E4E0FF"></path>
                                                        <path d="M30.961385,61.5330528 C30.961385,61.5330528 30.950985,61.3953167 30.931485,61.1361639 C30.928235,61.0062611 30.900285,60.8489417 30.865835,60.6648583 C30.841135,60.4788167 30.785235,60.2712333 30.716335,60.0408028 C30.572035,59.5851639 30.356885,59.035525 29.968835,58.4930667 C29.588585,57.9499556 29.062085,57.3996639 28.376335,56.967525 C27.704885,56.5360389 26.825435,56.2292333 25.970035,56.1365389 C24.999585,56.0327472 24.053835,56.1776639 23.124985,56.5719417 C22.663485,56.7651639 22.231885,57.0419417 21.824335,57.3585389 C21.425885,57.6881917 21.072935,58.0792056 20.766785,58.5093861 C20.468435,58.9480528 20.244835,59.4343722 20.065435,59.940275 C19.993935,60.198775 19.911385,60.4605389 19.878885,60.7085944 C19.820385,60.9266222 19.816485,61.3000111 19.792435,61.5330528 C19.794385,62.0768167 19.853535,62.6212333 19.998485,63.1467194 C20.155135,63.6669833 20.371585,64.1689694 20.660185,64.628525 C21.246485,65.53915 22.084335,66.2709139 23.032685,66.7050111 C23.503935,66.9099833 24.010285,67.0803583 24.487385,67.143025 C24.714235,67.1959 24.996985,67.1985111 25.255035,67.2180944 C25.473435,67.2220111 25.737335,67.2102611 25.970685,67.1932889 C26.928785,67.0966778 27.802385,66.7585389 28.503735,66.29115 C29.209635,65.8263722 29.725085,65.2264694 30.092985,64.6559417 C30.465435,64.0814972 30.658485,63.5116222 30.782635,63.0435806 C30.843085,62.8059694 30.888585,62.595775 30.903535,62.4175667 C30.929535,62.2406639 30.950985,62.0879139 30.949035,61.9397333 C30.957485,61.6596917 30.962035,61.5095528 30.962035,61.5095528 L30.961385,61.5330528 Z M31.868135,61.5565528 C31.868135,61.5565528 31.857735,61.7053861 31.838235,61.9854278 C31.834985,62.1185944 31.805735,62.3079 31.765435,62.5324556 C31.735535,62.7596222 31.673135,63.0037611 31.593835,63.2707472 C31.430035,63.8040667 31.179135,64.4457472 30.731935,65.0809 C30.296435,65.7206222 29.684785,66.3609972 28.896985,66.8877889 C28.105935,67.4054417 27.132235,67.7971083 26.053885,67.9426778 C25.778285,67.9694417 25.522185,67.9909833 25.216685,67.9909833 C24.950835,67.977275 24.699285,67.9851083 24.396385,67.9328861 C23.804235,67.8682611 23.254335,67.6965806 22.697285,67.472025 C22.146085,67.2389833 21.623485,66.919775 21.134685,66.5418167 C20.653685,66.1521083 20.224685,65.6879833 19.852885,65.1722889 C19.492135,64.6487611 19.207435,64.0671361 18.998135,63.453525 C18.801185,62.8346917 18.702385,62.1858306 18.677035,61.5330528 C18.693935,61.1694556 18.677035,60.9409833 18.736835,60.5708583 C18.769985,60.2235806 18.854485,59.9109 18.931185,59.5923444 C19.117735,58.9637194 19.395285,58.3664278 19.746935,57.8220111 C20.110285,57.2860806 20.536035,56.7984556 21.018335,56.3839417 C21.510385,55.9831361 22.038185,55.6339 22.604985,55.3832333 C23.724285,54.8786361 24.993085,54.7376361 26.054535,54.8597056 C27.235585,55.0085389 28.203435,55.4321917 29.024385,55.9857472 C29.832335,56.5451778 30.432935,57.2351639 30.856735,57.9023028 C31.287685,58.5700944 31.516485,59.2320111 31.660785,59.7764278 C31.730335,60.0512472 31.782985,60.2979972 31.803785,60.5173306 C31.834985,60.7347056 31.857085,60.9194417 31.855785,61.0708861 C31.864235,61.3724694 31.868785,61.5330528 31.868785,61.5330528 L31.868135,61.5565528 Z" id="Fill-11" fill="#586978"></path>
                                                        <path d="M46.42235,23.2894139 C48.2326,23.2894139 49.69965,25.3437056 49.69965,27.8784417 C49.69965,30.412525 48.2326,32.4674694 46.42235,32.4674694" id="Fill-13" fill="#FFF6F7"></path>
                                                        <path d="M46.468045,22.6382681 C46.468045,22.6382681 46.678645,22.7179069 47.047195,22.8562958 C47.157695,22.8941569 47.264945,22.9444208 47.366345,23.0090458 C47.473595,23.0677958 47.588645,23.1258931 47.697195,23.2107542 C47.922095,23.3654625 48.154795,23.5547681 48.368645,23.7904208 C48.595495,24.0136708 48.791145,24.2904486 48.987445,24.5822403 C49.178545,24.8786014 49.345595,25.2082542 49.496395,25.5574903 C49.786945,26.2624903 49.930595,27.0693236 49.963095,27.8781153 C49.964395,28.2743514 49.949445,28.6862542 49.881845,29.0877125 C49.831145,29.4872125 49.727145,29.8743097 49.603645,30.2424764 C49.343645,30.9755458 48.959495,31.6283236 48.488895,32.1022403 C48.257495,32.3405042 48.010495,32.5396014 47.762845,32.6786431 C47.520395,32.8242125 47.283145,32.9240875 47.080345,32.9802264 C46.676695,33.1146986 46.419295,33.1075181 46.422545,33.1205736 L46.422545,31.8150181 C46.421895,31.8032681 46.562295,31.8476569 46.820345,31.8248097 C46.950345,31.8208931 47.107645,31.7804208 47.285095,31.7138375 C47.465145,31.6524764 47.662745,31.5434625 47.866195,31.3965875 C48.072895,31.2523236 48.274395,31.0525736 48.460295,30.8123514 C48.648795,30.5747403 48.820395,30.2940458 48.963395,29.9846292 C49.098595,29.6719486 49.222745,29.3357681 49.300095,28.9786986 C49.387195,28.6288097 49.414495,28.2599903 49.436595,27.8781153 C49.435295,27.5060319 49.430095,27.1287264 49.355345,26.7670875 C49.298145,26.4034903 49.191545,26.0562125 49.070645,25.7291708 C48.941945,25.4053931 48.789845,25.1018514 48.598745,24.8492264 C48.420645,24.5874625 48.198345,24.3851014 47.986445,24.2238653 C47.765445,24.0743792 47.554195,23.9562264 47.350745,23.9111847 C47.160295,23.8530875 46.965295,23.8328514 46.853495,23.8524347 C46.788495,23.8583097 46.752745,23.8622264 46.689045,23.8726708 C46.622095,23.8837681 46.564895,23.8961708 46.518745,23.9072681 C46.425795,23.9288097 46.376395,23.9405597 46.376395,23.9405597 L46.468045,22.6382681 Z" id="Fill-15" fill="#586978"></path>
                                                        <path d="M0.65,27.8784417 C0.65,30.412525 2.11705,32.4674694 3.9273,32.4674694" id="Fill-17" fill="#FFF6F7"></path>
                                                        <path d="M1.299545,27.8547458 L1.243645,28.1243431 C1.207895,28.3097319 1.183845,28.5081764 1.171495,28.7790792 C1.172145,29.0512875 1.185795,29.3770236 1.266395,29.7125514 C1.329445,30.0552597 1.468545,30.3992736 1.637545,30.7276208 C1.803295,31.0598847 2.050295,31.3386208 2.292095,31.5788431 C2.535845,31.8223292 2.838745,31.9515792 3.096795,32.0005375 C3.231345,32.0103292 3.345745,32.0351347 3.454295,32.0070653 C3.559595,31.9913986 3.647345,31.9737736 3.718195,31.9398292 C3.859895,31.8712875 3.927495,31.8144958 3.927495,31.8144958 L3.927495,33.1200514 C3.927495,33.1200514 3.801395,33.0502042 3.604445,32.9575097 C3.504345,32.9248708 3.393845,32.8387042 3.267095,32.7819125 C3.139695,32.7205514 3.012945,32.6239403 2.870595,32.5443014 C2.739295,32.4431208 2.588495,32.3569542 2.450045,32.2407597 C2.303795,32.1356625 2.162095,32.0142458 2.015195,31.8882597 C1.871545,31.7603153 1.726595,31.6206208 1.600495,31.4646069 C1.467895,31.3112042 1.350895,31.1440931 1.230645,30.9776347 C1.008345,30.6355792 0.804245,30.2758986 0.652795,29.9194819 C0.494845,29.5650236 0.375245,29.2197042 0.277745,28.9174681 C0.111345,28.3084264 0.000195,27.9023986 0.000195,27.9023986 L1.299545,27.8547458 Z" id="Fill-19" fill="#586978"></path>
                                                        <path d="M3.9273,23.2894139 C2.11705,23.2894139 0.65,25.3437056 0.65,27.8784417" id="Fill-21" fill="#FFF6F7"></path>
                                                        <path d="M3.972995,23.940625 C3.972995,23.940625 3.874845,23.9236528 3.702595,23.893625 C3.598595,23.876 3.567395,23.8844861 3.473795,23.8733889 C3.394495,23.8557639 3.278145,23.893625 3.158545,23.9034167 C2.924545,23.9634722 2.632695,24.0600833 2.370095,24.2650556 C2.238795,24.3642778 2.099695,24.4726389 1.979445,24.6038472 C1.855945,24.7330972 1.744795,24.8786667 1.637545,25.0294583 C1.428895,25.3343056 1.268995,25.6750556 1.155895,26.0066667 C1.033695,26.3369722 0.997945,26.6705417 1.014845,26.9538472 C1.023945,27.0955 1.046695,27.2260556 1.073995,27.3402917 C1.090245,27.4532222 1.142245,27.5530972 1.169545,27.6320833 C1.240395,27.7920139 1.300195,27.8781806 1.300195,27.8781806 L0.000195,27.8781806 C0.000195,27.8781806 0.066495,27.7704722 0.149695,27.5896528 C0.220545,27.4081806 0.340795,27.1581667 0.434395,26.8637639 C0.549445,26.5719722 0.646945,26.2351389 0.763295,25.8748056 C0.816595,25.6926806 0.886145,25.5099028 0.966095,25.3264722 C1.042795,25.1423889 1.139645,24.962875 1.230645,24.7794444 C1.423695,24.4171528 1.672645,24.081625 1.937195,23.7813472 C2.074995,23.6364306 2.214745,23.4986944 2.363595,23.3792361 C2.506595,23.2539028 2.667145,23.1631667 2.809495,23.0659028 C2.966145,22.9862639 3.091595,22.9020556 3.248245,22.8517917 C3.386695,22.7989167 3.553095,22.7395139 3.620695,22.7231944 C3.786445,22.6690139 3.881345,22.6383333 3.881345,22.6383333 L3.972995,23.940625 Z" id="Fill-23" fill="#586978"></path>
                                                        <path d="M25.45465,65.0058306 C23.13675,65.0058306 21.2407,63.3020806 21.2407,61.2203722 L21.2407,48.4161361 L29.6686,48.4161361 L29.6686,61.2203722 C29.6686,63.3020806 27.7719,65.0058306 25.45465,65.0058306" id="Fill-25" fill="#FFF6F7"></path>
                                                        <path d="M25.42501,65.6579556 C25.06946,65.6005111 24.54751,65.5182611 24.14386,65.3700806 C23.72591,65.2199417 23.32746,65.0260667 22.96346,64.7825806 C22.23416,64.3008306 21.63551,63.6265111 21.28516,62.8301222 C21.11356,62.431275 21.00761,62.0056639 20.97251,61.5754833 C20.95041,61.1276778 20.97121,60.7614694 20.96926,60.3541361 C20.98096,59.5584 20.97706,58.7626639 20.96926,57.9669278 C20.96471,56.3754556 20.92636,54.7839833 20.87046,53.1918583 C20.84186,52.3961222 20.80741,51.6003861 20.75866,50.80465 C20.70406,50.0089139 20.66701,49.2131778 20.59096,48.4174417 L20.59096,48.4161361 L20.59096,47.7633583 L21.24096,47.7633583 L29.66886,47.7633583 L30.31886,47.7633583 L30.31886,48.4161361 L30.31886,48.4174417 C30.23631,49.2131778 30.19471,50.0089139 30.13621,50.80465 C30.07771,51.6003861 30.04781,52.3961222 30.01076,53.1918583 C29.94901,54.7839833 29.90741,56.3754556 29.89441,57.9669278 C29.89376,58.7626639 29.87296,59.5584 29.88791,60.3541361 L29.89441,60.950775 L29.89506,61.2628028 L29.88141,61.5604694 C29.84956,61.9919556 29.74491,62.4162611 29.57851,62.8085806 C29.23141,63.5938722 28.64706,64.264275 27.92751,64.7505944 C27.20601,65.239525 26.35516,65.5352333 25.45491,65.6586083 L25.45491,64.3530528 C26.82056,64.5939278 28.39941,63.8954556 29.09166,62.5755389 C29.25676,62.2439278 29.36596,61.8940389 29.41861,61.5343583 L29.43876,61.2366917 L29.44331,60.950775 L29.44916,60.3541361 C29.46476,59.5584 29.44396,58.7626639 29.44266,57.9669278 C29.43031,56.3754556 29.38806,54.7839833 29.32631,53.1918583 C29.28991,52.3961222 29.25936,51.6003861 29.20086,50.80465 C29.14301,50.0089139 29.10141,49.2131778 29.01886,48.4174417 L29.01886,48.4161361 L29.66886,49.0689139 L21.24096,49.0689139 L21.89096,48.4161361 L21.89096,48.4174417 C21.81426,49.2131778 21.77721,50.0089139 21.72261,50.80465 C21.67386,51.6003861 21.63941,52.3961222 21.61081,53.1918583 C21.55556,54.7839833 21.51721,56.3754556 21.51201,57.9669278 C21.50421,58.7626639 21.50031,59.5584 21.51201,60.3541361 C21.52241,60.7425389 21.50161,61.1733722 21.54646,61.5193444 C21.59586,61.8803306 21.70376,62.2295667 21.86366,62.5539972 C22.03591,62.8738583 22.26211,63.159775 22.51886,63.4110944 C22.77431,63.6663306 23.08696,63.8562889 23.40221,64.0194833 C23.71811,64.1879 24.07236,64.2681917 24.41426,64.3341222 C24.77696,64.3967889 25.04866,64.3883028 25.48416,64.3537056 L25.42501,65.6579556 Z" id="Fill-27" fill="#586978"></path>
                                                        <path d="M4.35695,24.9559556 C3.1408,24.9559556 2.1541,26.3372333 2.1541,28.0403306 C2.1541,29.7434278 3.1408,31.1247056 4.35695,31.1247056" id="Fill-29" fill="#DBD0D1"></path>
                                                        <path d="M46.1539,24.9559556 C47.3707,24.9559556 48.35675,26.3372333 48.35675,28.0403306 C48.35675,29.7434278 47.3707,31.1247056 46.1539,31.1247056" id="Fill-31" fill="#DBD0D1"></path>
                                                        <path d="M24.82025,55.3290528 L25.30905,55.3290528 C36.9707,55.3290528 46.51205,45.7469278 46.51205,34.0354417 L46.67325,14.0382472 C46.67325,6.6129 40.6237,0.537497222 33.2293,0.537497222 L19.89585,0.537497222 C11.3009,0.537497222 4.2679,7.5999 4.2679,16.2328861 L4.2679,34.0354417 C4.2679,45.7469278 13.1586,55.3290528 24.82025,55.3290528" id="Fill-33" fill="#FFF6F7"></path>
                                                        <path d="M24.82025,54.676275 C24.82025,54.676275 24.9795,54.6808444 25.28825,54.6899833 C25.58985,54.6834556 26.0377,54.6743167 26.62075,54.6619139 C26.91585,54.6469 27.26295,54.6658306 27.612,54.6220944 C27.96105,54.5744417 28.3426,54.5228722 28.7547,54.4673861 C28.96075,54.4393167 29.17525,54.4105944 29.3969,54.3805667 C29.61855,54.3407472 29.8454,54.2754694 30.08135,54.2219417 C30.55065,54.1018306 31.0583,54.0019556 31.5796,53.8459417 C33.6544,53.1951222 36.10165,52.0494972 38.4644,50.1140111 C40.79595,48.1648167 43.03065,45.4205389 44.48925,41.9503722 C45.1919,40.2068028 45.6924,38.3019972 45.93745,36.2888306 C46.1045,34.2874139 46.07655,32.1214972 46.1019,29.9255528 C46.14025,25.5238722 46.18055,20.8819694 46.2215,16.0801361 C46.2267,15.4802333 46.2319,14.8770667 46.2371,14.2719417 C46.2267,13.7242611 46.2046,13.0629972 46.14025,12.4898583 C46.0031,11.3468444 45.695,10.1777194 45.2543,9.07060833 C44.32935,6.87009444 42.80575,4.879775 40.8252,3.45671944 C39.84045,2.74649722 38.7634,2.14006667 37.6038,1.74448333 C37.0383,1.50426111 36.4312,1.39655278 35.841,1.22878889 C35.23325,1.14980278 34.63135,1.00358056 34.0145,1.002275 C33.40805,0.958538889 32.773,0.956580556 32.13405,0.960497222 L30.22435,0.959191667 L26.4004,0.957233333 L22.57645,0.955275 L20.66675,0.953969444 C20.358,0.957886111 20.00895,0.944830556 19.734,0.962455556 L18.7824,1.01010833 C16.3241,1.155025 13.9217,1.99776111 11.85275,3.293525 C9.76365,4.57558056 8.0509,6.39878889 6.82175,8.46026111 C6.18605,9.48316389 5.7395,10.5994139 5.35275,11.7202333 C5.2182,12.2979417 5.0284,12.8619417 4.9374,13.4442194 C4.86135,14.0278028 4.7229,14.6029 4.72225,15.1904 C4.63385,16.3432056 4.67935,17.5586778 4.66635,18.7317194 C4.6657,19.9106361 4.66505,21.0784556 4.6644,22.234525 C4.6631,24.5453583 4.6618,26.8059278 4.6605,29.0070944 C4.65985,30.1076778 4.6592,31.1925944 4.6592,32.2618444 C4.65855,32.7964694 4.65855,33.3271778 4.6579,33.8533167 C4.6644,34.3422472 4.7021,34.8905806 4.72225,35.3990944 C4.73395,35.6582472 4.7463,35.9154417 4.758,36.1719833 L4.86395,36.9109278 C4.94,37.4011639 4.9907,37.8887889 5.0843,38.3679278 C5.32415,39.319025 5.5029,40.2688167 5.84935,41.1487611 C7.02845,44.747525 9.16565,47.6021222 11.39775,49.6570667 C13.6409,51.7361639 16.06865,52.9464139 18.1181,53.6429278 C18.3755,53.7304 18.6186,53.8381083 18.86755,53.9020806 C19.11715,53.9627889 19.3596,54.0221917 19.5949,54.0796361 C20.06745,54.182775 20.501,54.3218167 20.9196,54.3753444 C21.7581,54.47065 22.4614,54.6136083 23.04315,54.6247056 C24.2021,54.65865 24.82025,54.676275 24.82025,54.676275 L24.82025,55.9818306 C24.82025,55.9818306 24.16505,55.9341778 22.93655,55.8454 C22.32295,55.8049278 21.57935,55.6247611 20.70185,55.4831083 C20.26375,55.4060806 19.81005,55.2415806 19.31735,55.111025 C19.0723,55.0418306 18.8188,54.970025 18.5588,54.8962611 C18.29815,54.8224972 18.044,54.7030389 17.7762,54.6044694 C15.6286,53.8276639 13.15145,52.4529139 10.82575,50.281775 C8.50785,48.119775 6.36415,45.1163444 5.1194,41.4007333 C4.76125,40.4888028 4.5721,39.5057194 4.32445,38.520025 C4.2263,38.0199972 4.1704,37.5029972 4.0911,36.9873028 C4.0547,36.7294556 4.0183,36.46965 3.9819,36.2091917 C3.96955,35.95265 3.9572,35.6954556 3.94485,35.4369556 C3.9234,34.9108167 3.887,34.4166639 3.8779,33.8533167 C3.87725,33.3271778 3.87725,32.7964694 3.8766,32.2618444 C3.8766,31.1925944 3.87595,30.1076778 3.8753,29.0070944 C3.874,26.8059278 3.8727,24.5453583 3.8714,22.234525 C3.87075,21.0784556 3.8701,19.9106361 3.86945,18.7317194 C3.88115,17.546275 3.8324,16.3784556 3.9221,15.1355667 C3.9247,14.5173861 4.0664,13.9109556 4.14765,13.2960389 C4.2432,12.6830806 4.44015,12.0877472 4.58315,11.4800111 C4.98745,10.2984833 5.4587,9.12283056 6.1256,8.04444167 C7.4178,5.87134444 9.2196,3.95217778 11.41725,2.59701111 C13.5993,1.22944167 16.11805,0.3384 18.74015,0.181080556 L19.69175,0.131469444 C20.0512,0.111886111 20.33915,0.125594444 20.66675,0.121025 L22.57645,0.119719444 L26.4004,0.117761111 L30.22435,0.115802778 L32.13405,0.114497222 C32.76715,0.109927778 33.4035,0.109927778 34.0652,0.155622222 C34.72235,0.158886111 35.36455,0.309677778 36.01195,0.395844444 C36.64115,0.570788889 37.2879,0.688941667 37.89175,0.942872222 C39.1274,1.36391389 40.27595,2.0069 41.3257,2.76281667 C43.4356,4.27595556 45.0619,6.39226111 46.05055,8.73899722 C46.5231,9.9264 46.852,11.1451361 47.0041,12.4252333 C47.07235,13.0616917 47.09185,13.6191639 47.1055,14.2791222 C47.10095,14.8842472 47.0964,15.4867611 47.09185,16.0873167 C47.0561,20.88915 47.021,25.5310528 46.98785,29.9327333 C46.96315,32.1365111 46.99955,34.2580389 46.826,36.3854417 C46.57315,38.4867333 46.05315,40.4757472 45.3206,42.2963444 C43.8035,45.9199139 41.47585,48.7849556 39.0442,50.8209694 C36.5742,52.8295667 34.05025,54.0815944 31.88055,54.7898583 C31.3391,54.9693722 30.81195,55.0960111 30.32315,55.2376639 C30.0768,55.3029417 29.8415,55.3780111 29.60685,55.4289278 C29.36895,55.4700528 29.13885,55.5092194 28.9172,55.5477333 C28.4726,55.6241083 28.06115,55.6952611 27.68415,55.7598861 C27.30715,55.8271222 26.98215,55.8264694 26.68185,55.8591083 C26.0715,55.9067611 25.6035,55.9433167 25.28825,55.9681222 C24.9795,55.9772611 24.82025,55.9818306 24.82025,55.9818306 L24.82025,54.676275 Z" id="Fill-35" fill="#586978"></path>
                                                        <path d="M25.9584,35.2274139 C24.2437,35.2274139 22.78315,34.5857333 22.22545,33.6855528 C22.0688,33.9381778 21.98365,34.2103861 21.98365,34.4949972 C21.98365,35.7933722 23.76335,36.8463028 25.9584,36.8463028 C28.15345,36.8463028 29.93315,35.7933722 29.93315,34.4949972 C29.93315,34.2103861 29.84735,33.9381778 29.69135,33.6855528 C29.13365,34.5857333 27.67245,35.2274139 25.9584,35.2274139" id="Fill-37" fill="#DBD0D1"></path>
                                                        <path d="M29.55602,34.4949972 C29.55602,34.4949972 29.55472,34.4369 29.55147,34.3272333 C29.53327,34.219525 29.51052,34.0537194 29.39287,33.8565806 C29.28302,33.6600944 29.09582,33.4270528 28.81372,33.2188167 C28.53487,33.0053583 28.16567,32.821275 27.73667,32.6933306 C27.31027,32.5634278 26.81367,32.49815 26.31252,32.4864 C25.78277,32.4785667 25.24717,32.5223028 24.70897,32.6665667 C24.17597,32.8075667 23.64622,33.0334278 23.22242,33.3611222 C23.01377,33.5256222 22.83047,33.7103583 22.71022,33.9088028 C22.65107,34.0073722 22.61012,34.1098583 22.58022,34.2045111 C22.57827,34.2410667 22.57047,34.2697889 22.55877,34.3063444 L22.54967,34.5433028 C22.55357,34.4479972 22.55097,34.5198028 22.55227,34.4995667 L22.55357,34.5034833 L22.55487,34.5126222 L22.55877,34.5302472 L22.56462,34.5648444 L22.57437,34.6346917 C22.59062,34.6797333 22.60752,34.724775 22.61987,34.7698167 C22.66407,34.8585944 22.70957,34.9486778 22.77522,35.03615 C22.90782,35.2104417 23.09502,35.3697194 23.30562,35.5054972 C23.72877,35.78815 24.24877,35.9598306 24.76162,36.0708028 C25.01902,36.1302056 25.28227,36.1576222 25.51757,36.1863444 C25.64107,36.2007056 25.79512,36.2033167 25.92967,36.2118028 C26.05122,36.2144139 26.17147,36.2163722 26.28977,36.2183306 C26.78312,36.2183306 27.24657,36.1530528 27.65997,36.0518722 C28.49457,35.85865 29.08867,35.4460944 29.32592,35.0909833 C29.39547,35.0054694 29.42797,34.9206083 29.46827,34.8494556 C29.49167,34.7861361 29.51117,34.7319556 29.52742,34.6882194 C29.54692,34.5413444 29.55732,34.4630111 29.55732,34.4630111 L29.55602,34.4949972 Z M30.30872,34.5269833 C30.30872,34.5269833 30.30612,34.6066222 30.30027,34.7548028 C30.28792,34.8442333 30.26127,34.9845806 30.22227,35.1216639 C30.17417,35.2463444 30.12347,35.3964833 30.03312,35.5387889 C29.69707,36.134775 28.96062,36.72815 27.98432,37.0904417 C27.49552,37.2738722 26.94432,37.3946361 26.35542,37.4520806 C26.20202,37.4618722 26.07267,37.4781917 25.89197,37.4775389 C25.74962,37.4749278 25.62157,37.48015 25.46167,37.4703583 C25.13082,37.4546917 24.81557,37.4142194 24.49512,37.3463306 C23.85422,37.2144694 23.20032,36.9716361 22.59322,36.5519 C22.01927,36.1184556 21.38487,35.4846083 21.41802,34.4466917 L21.44857,34.2110389 C21.47392,34.0935389 21.50772,33.9695111 21.54477,33.8526639 C21.62602,33.6516083 21.72547,33.4707889 21.84572,33.3089 C22.08622,32.9896917 22.37742,32.7514278 22.67707,32.5614694 C23.28287,32.1874278 23.92637,31.9974694 24.54777,31.8956361 C25.16657,31.7964139 25.78147,31.7729139 26.33267,31.822525 C26.91312,31.8688722 27.43247,31.9896361 27.90762,32.1443444 C28.85012,32.4550667 29.60087,32.9381222 29.96682,33.4936361 C30.15857,33.7599694 30.23462,34.0295667 30.27622,34.2090806 C30.29832,34.395775 30.31002,34.4949972 30.31002,34.4949972 L30.30872,34.5269833 Z" id="Fill-39" fill="#586978"></path>
                                                        <path d="M26.52325,27.8033722 C26.52325,27.8033722 26.494,28.0357611 26.4654,28.3849972 C26.44395,28.7342333 26.40625,29.1996639 26.403,29.6650944 C26.39845,30.1298722 26.3718,30.5953028 26.41015,30.9445389 C26.4498,31.293775 26.52325,31.5261639 26.52325,31.5261639 C26.637,31.8864972 26.4381,32.2716361 26.0793,32.3858722 C25.71985,32.5001083 25.337,32.3003583 25.22325,31.9393722 C25.17905,31.7996778 25.1823,31.6560667 25.22325,31.5261639 C25.22325,31.5261639 25.2967,31.293775 25.33635,30.9445389 C25.3747,30.5953028 25.34805,30.1298722 25.3435,29.6650944 C25.34025,29.1996639 25.30255,28.7342333 25.2811,28.3849972 C25.2525,28.0357611 25.22325,27.8033722 25.22325,27.8033722 C25.1784,27.4430389 25.43255,27.1140389 25.79135,27.0683444 C26.15015,27.0233028 26.4784,27.2785389 26.52325,27.6388722 C26.5304,27.6937056 26.52975,27.75115 26.52325,27.8033722" id="Fill-41" fill="#586978"></path>
                                                        <polygon id="Fill-43" fill="#586978" points="30.4109 18.2617194 30.4694 18.2649833 30.52725 18.2708583 30.5851 18.2793444 30.6423 18.2904417 30.6995 18.30415 30.7554 18.3204694 37.39775 20.3982611 37.45365 20.4171917 37.5076 20.4380806 37.5609 20.4615806 37.61355 20.4876917 37.66425 20.5157611 37.7143 20.5464417 37.7624 20.5790806 37.80985 20.6143306 37.8547 20.6508861 37.89825 20.6900528 37.93985 20.7311778 37.98015 20.7736083 38.01785 20.8179972 38.0536 20.8643444 38.0874 20.9119972 38.11925 20.9616083 38.1485 21.0118722 38.1758 21.0640944 38.2005 21.1169694 38.2226 21.17115 38.24275 21.2259833 38.2603 21.2821222 38.27525 21.3389139 38.2876 21.3957056 38.29735 21.4538028 38.3045 21.5119 38.30905 21.5699972 38.31165 21.6287472 38.311 21.6874972 38.30775 21.7455944 38.3019 21.8043444 38.29345 21.8624417 38.2824 21.9198861 38.26875 21.9766778 38.2525 22.0328167 38.2343 22.0883028 38.21285 22.1431361 38.18945 22.1966639 38.16345 22.2495389 38.1355 22.3004556 38.10495 22.3507194 38.07245 22.399025 38.03735 22.446025 38.00095 22.4917194 37.96195 22.5354556 37.921 22.5772333 37.87875 22.6170528 37.83455 22.6555667 37.7884 22.6914694 37.74095 22.7254139 37.69155 22.7574 37.6415 22.786775 37.5895 22.8141917 37.53685 22.8389972 37.4829 22.8611917 37.4283 22.8814278 37.3724 22.8990528 37.3165 22.9140667 37.2593 22.9264694 37.20145 22.9362611 37.1436 22.9434417 37.08575 22.9480111 37.02725 22.9499694 36.96875 22.9493167 36.9109 22.9460528 36.8524 22.9401778 36.7952 22.9316917 36.73735 22.9212472 36.6808 22.9075389 36.6249 22.8912194 29.9819 20.8134278 29.92665 20.7944972 29.87205 20.7736083 29.81875 20.7501083 29.76675 20.7239972 29.7154 20.695275 29.666 20.6652472 29.61725 20.6319556 29.57045 20.5973583 29.5256 20.56015 29.48205 20.5216361 29.4398 20.4805111 29.40015 20.4374278 29.36245 20.3930389 29.32605 20.3466917 29.29225 20.2990389 29.26105 20.2500806 29.2318 20.1991639 29.2045 20.1475944 29.1798 20.0947194 29.15705 20.0405389 29.13755 19.9850528 29.12 19.9295667 29.10505 19.872775 29.0927 19.8153306 29.08295 19.7578861 29.07515 19.6997889 29.0706 19.6410389 29.06865 19.5829417 29.0693 19.5241917 29.07255 19.4654417 29.0784 19.4073444 29.08685 19.3492472 29.0979 19.2918028 29.11155 19.2350111 29.1278 19.1782194 29.146 19.1227333 29.16745 19.0685528 29.19085 19.0143722 29.2162 18.96215 29.2448 18.9105806 29.27535 18.8609694 29.30785 18.8120111 29.3423 18.7650111 29.37935 18.7199694 29.41835 18.6762333 29.45865 18.6344556 29.50155 18.5939833 29.54575 18.5561222 29.5919 18.5202194 29.63935 18.486275 29.6881 18.4542889 29.7388 18.4249139 29.79015 18.3974972 29.84345 18.3726917 29.89675 18.3498444 29.952 18.3302611 30.00725 18.3126361 30.0638 18.2976222 30.121 18.2852194 30.1782 18.2754278 30.23605 18.2682472 30.29455 18.263025 30.35305 18.2610667"></polygon>
                                                        <path d="M20.57185,19.5666222 L13.9295,21.6444139" id="Fill-45" fill="#586978"></path>
                                                        <polygon id="Fill-47" fill="#586978" points="20.6466 18.263025 20.70445 18.2682472 20.7623 18.2754278 20.82015 18.2852194 20.8767 18.2976222 20.93325 18.3126361 20.98915 18.3302611 21.04375 18.3498444 21.0977 18.3726917 21.15035 18.3974972 21.20235 18.4249139 21.2524 18.4542889 21.3018 18.486275 21.34925 18.5202194 21.39475 18.5561222 21.4396 18.5939833 21.48185 18.6344556 21.5228 18.6762333 21.5618 18.7199694 21.5982 18.7650111 21.6333 18.8120111 21.6658 18.8609694 21.69635 18.9105806 21.7243 18.96215 21.7503 19.0143722 21.7737 19.0685528 21.7945 19.1227333 21.81335 19.1782194 21.8296 19.2350111 21.84325 19.2918028 21.85365 19.3492472 21.8621 19.4073444 21.86795 19.4654417 21.8712 19.5241917 21.87185 19.5829417 21.8699 19.6410389 21.86535 19.6997889 21.8582 19.7578861 21.84845 19.8153306 21.8361 19.872775 21.82115 19.9295667 21.8036 19.9850528 21.78345 20.0405389 21.76135 20.0947194 21.73665 20.1475944 21.70935 20.1991639 21.6801 20.2500806 21.64825 20.2990389 21.61445 20.3466917 21.5787 20.3930389 21.54035 20.4374278 21.5007 20.4805111 21.4591 20.5216361 21.41555 20.56015 21.37005 20.5973583 21.32325 20.6319556 21.27515 20.6652472 21.2251 20.695275 21.1744 20.7239972 21.12175 20.7501083 21.06845 20.7736083 21.01385 20.7944972 20.9586 20.8134278 14.31625 22.8912194 14.2597 22.9075389 14.20315 22.9212472 14.14595 22.9316917 14.0881 22.9401778 14.03025 22.9460528 13.97175 22.9493167 13.91325 22.9499694 13.8554 22.9480111 13.7969 22.9434417 13.73905 22.9362611 13.68185 22.9264694 13.62465 22.9140667 13.5681 22.8990528 13.51285 22.8814278 13.4576 22.8611917 13.40365 22.8389972 13.351 22.8141917 13.29965 22.786775 13.24895 22.7574 13.2002 22.7254139 13.15275 22.6914694 13.1066 22.6555667 13.0624 22.6170528 13.0195 22.5772333 12.97855 22.5354556 12.9402 22.4917194 12.90315 22.446025 12.86805 22.399025 12.83555 22.3507194 12.805 22.3004556 12.77705 22.2495389 12.75105 22.1966639 12.72765 22.1431361 12.70685 22.0883028 12.688 22.0328167 12.67175 21.9766778 12.65875 21.9198861 12.6477 21.8624417 12.63925 21.8043444 12.6334 21.7455944 12.63015 21.6874972 12.6295 21.6287472 12.63145 21.5699972 12.636 21.5119 12.64315 21.4538028 12.6529 21.3957056 12.66525 21.3389139 12.6802 21.2821222 12.69775 21.2259833 12.7179 21.17115 12.74 21.1169694 12.76535 21.0640944 12.792 21.0118722 12.82125 20.9616083 12.8531 20.9119972 12.8869 20.8643444 12.92265 20.8179972 12.961 20.7736083 13.00065 20.7311778 13.04225 20.6900528 13.0858 20.6508861 13.1313 20.6143306 13.1781 20.5790806 13.2262 20.5464417 13.27625 20.5157611 13.3276 20.4876917 13.3796 20.4615806 13.4329 20.4380806 13.4875 20.4171917 13.54275 20.3982611 20.18575 18.3204694 20.24165 18.30415 20.2982 18.2904417 20.3554 18.2793444 20.41325 18.2708583 20.4711 18.2649833 20.5296 18.2617194 20.5881 18.2610667"></polygon>
                                                        <path d="M17.333355,24.7914556 C18.050955,24.7914556 18.633355,25.6687889 18.633355,26.7497889 C18.633355,27.8307889 18.050955,28.7081222 17.333355,28.7081222 C16.615755,28.7081222 16.033355,27.8307889 16.033355,26.7497889 C16.033355,25.6687889 16.615755,24.7914556 17.333355,24.7914556" id="Fill-49" fill="#586978"></path>
                                                        <path d="M34.233355,24.7914556 C34.950955,24.7914556 35.533355,25.6687889 35.533355,26.7497889 C35.533355,27.8307889 34.950955,28.7081222 34.233355,28.7081222 C33.515755,28.7081222 32.933355,27.8307889 32.933355,26.7497889 C32.933355,25.6687889 33.515755,24.7914556 34.233355,24.7914556" id="Fill-51" fill="#586978"></path>
                                                    </g>
                                                    <g id="Group-72" transform="translate(2.600000, 0.014361)">
                                                        <path d="M44.5562,19.250025 C44.5562,19.250025 47.54685,21.7318861 44.23445,31.6593306 C44.23445,31.6593306 43.74175,23.0811778 40.0348,20.0052889 C36.32785,16.9300528 41.42255,15.3385806 44.5562,19.250025" id="Fill-54" fill="#A89A99"></path>
                                                        <path d="M44.049785,19.6592514 C43.523935,18.9986403 42.882385,18.4352931 42.155685,18.0455847 C41.441985,17.6604458 40.595035,17.4260986 39.889785,17.5468625 C39.541385,17.6147514 39.302185,17.7707653 39.265135,17.9515847 C39.201435,18.1474181 39.324285,18.5162375 39.555685,18.8380569 C39.670735,19.0019042 39.806585,19.1624875 39.945685,19.3074042 C40.082185,19.4595014 40.283035,19.6174736 40.431235,19.7806681 L40.949935,20.3113764 C41.111785,20.4954597 41.246335,20.6991264 41.394535,20.8923486 C41.547935,21.0823069 41.674035,21.2879319 41.793635,21.4968208 C41.914535,21.7037514 42.047135,21.9054597 42.156985,22.1176125 C42.363685,22.5471403 42.585335,22.9701403 42.751735,23.4133764 C42.942835,23.8481264 43.093635,24.2946264 43.245085,24.7411264 C43.390685,25.1889319 43.521985,25.6406542 43.651985,26.0923764 C43.897685,26.9990847 44.114785,27.9110153 44.317585,28.8294736 L44.608785,30.2127097 L44.883085,31.6214042 L44.883085,31.6214042 L43.618185,31.4516819 C43.829435,30.9666681 44.010785,30.4692514 44.207735,29.9764042 C44.309785,29.7296542 44.377385,29.4750708 44.459935,29.2237514 L44.691335,28.4645708 C44.849935,27.9586681 44.942885,27.4397097 45.067035,26.9253208 C45.132035,26.6687792 45.158035,26.4063625 45.201585,26.1465569 C45.237335,25.8860986 45.288685,25.6262931 45.313385,25.3651819 L45.372535,24.5805431 C45.402435,24.3187792 45.379035,24.0583208 45.376435,23.7978625 C45.377085,23.5367514 45.356935,23.2769458 45.317285,23.0217097 C45.284135,22.7658208 45.258785,22.5092792 45.197685,22.2618764 C45.106035,21.7611958 44.958485,21.2800986 44.773885,20.8355569 C44.681585,20.6162236 44.582785,20.3995014 44.466435,20.2088903 C44.364385,20.0195847 44.215535,19.8159181 44.121935,19.7362792 L44.086185,19.7049458 L44.049785,19.6592514 Z M45.333535,19.1677097 C45.429735,19.3054458 45.507735,19.4418764 45.586385,19.5848347 C45.733935,19.8603069 45.832735,20.1442653 45.926985,20.4262653 C46.086235,20.9967931 46.173985,21.5673208 46.203885,22.1313208 C46.233135,22.4139736 46.224685,22.6940153 46.223385,22.9734042 C46.228585,23.2527931 46.211685,23.5295708 46.194785,23.8043903 C46.174635,24.0798625 46.176585,24.3566403 46.144085,24.6281958 L46.071935,25.4467792 C46.050485,25.7196403 46.002385,25.9879319 45.968585,26.2588347 C45.926335,26.5284319 45.902935,26.8019458 45.852235,27.0689319 C45.748885,27.6022514 45.672185,28.1440569 45.555835,28.6741125 C45.432335,29.2028625 45.340035,29.7420569 45.211985,30.2701542 C45.092385,30.8008625 44.956535,31.3276542 44.850585,31.8668486 L44.197985,35.1934042 L43.585685,31.6971264 L43.585685,31.6964736 C43.620135,31.2591125 43.598035,30.7923764 43.590885,30.3380431 C43.573335,29.8804458 43.536285,29.4235014 43.484935,28.9685153 C43.376385,28.0598486 43.223635,27.1531403 42.992235,26.2692792 C42.876535,25.8273486 42.753685,25.3867236 42.603535,24.9571958 C42.452085,24.5276681 42.301935,24.0981403 42.114735,23.6855847 C41.950285,23.2619319 41.719535,22.8741819 41.514135,22.4746819 C41.404935,22.2795014 41.274935,22.0980292 41.156635,21.9093764 C41.041585,21.7174597 40.910285,21.5385986 40.763385,21.3760569 C40.619085,21.2102514 40.487785,21.0320431 40.335685,20.8779875 L39.857935,20.4432375 C39.683735,20.2741681 39.508885,20.1579736 39.322985,19.9778069 C39.130585,19.8009042 38.955085,19.6168208 38.791935,19.4105431 C38.487085,19.0025569 38.138685,18.4705431 38.254385,17.7302931 C38.319385,17.3693069 38.550785,17.0409597 38.814035,16.8438208 C39.078585,16.6401542 39.364585,16.5285292 39.643435,16.4547653 C40.764685,16.1975708 41.806635,16.4913208 42.723785,16.9319458 C43.647435,17.3817097 44.422235,18.0684319 45.062485,18.8406681 L45.333535,19.1677097 Z" id="Fill-56" fill="#586978"></path>
                                                        <path d="M40.034865,20.0052889 C36.327915,16.9300528 41.422615,15.3385806 44.556265,19.250025 C44.556265,19.250025 44.826665,19.4771917 45.114615,20.0601222 C47.964215,15.2419694 48.509565,10.5400111 48.509565,10.5400111 C48.509565,10.5400111 44.118165,13.0297056 22.651265,13.0297056 C15.574065,13.0297056 10.743265,13.6531083 7.447115,14.4893167 C3.281915,15.5455111 0.405665,19.3623028 0.539565,23.6739 L1.112215,42.1207472 L1.990365,43.0920806 C1.990365,35.970275 6.612515,30.3159139 26.427765,30.3159139 C34.141965,30.3159139 39.188565,27.3150944 42.484715,23.6543167 C41.887365,22.2084139 41.092415,20.8826222 40.034865,20.0052889" id="Fill-58" fill="#A89A99" opacity="0.200000003"></path>
                                                        <path d="M1.9903,40.4809694 L1.11215,39.5096361 L0.5395,21.0627889 C0.4056,16.7511917 3.28185,12.9344 7.44705,11.8782056 C10.7432,11.0419972 15.574,10.4185944 22.6512,10.4185944 C44.1181,10.4185944 48.5095,7.9289 48.5095,7.9289 C48.5095,7.9289 46.24295,27.7048028 26.4277,27.7048028 C6.61245,27.7048028 1.9903,33.3591639 1.9903,40.4809694" id="Fill-60" fill="#A89A99"></path>
                                                        <path d="M1.3403,40.4809694 C1.391,39.0996917 1.60225,37.7079694 2.067,36.3841361 C2.54475,35.0576917 3.35335,33.8807333 4.2965,32.8708861 C4.8048,32.4015389 5.2975,31.9139139 5.8812,31.5516222 C6.1672,31.364275 6.43175,31.1397194 6.73465,30.9850111 L7.6336,30.506525 C8.8413,29.8903028 10.1179,29.4529417 11.40165,29.0808583 C12.03605,28.8602194 12.6997,28.7662194 13.34645,28.6049833 C13.99515,28.4430944 14.6523,28.3379972 15.31075,28.2433444 C16.6218,28.0089972 17.9465,27.9032472 19.26665,27.77465 C19.9264,27.7034972 20.592,27.6989278 21.25435,27.6584556 C21.9167,27.6375667 22.5797,27.5638028 23.24075,27.5546639 C24.5609,27.5279 25.88495,27.4684972 27.20055,27.3875528 L28.1788,27.3261917 L29.15185,27.2139139 C29.8025,27.157775 30.4395,27.0213444 31.0804,26.911025 C31.72325,26.8085389 32.3453,26.6127056 32.9771,26.4664833 C33.58875,26.2510667 34.2225,26.0970111 34.814,25.8306778 C36.02885,25.37765 37.16765,24.7477194 38.2551,24.0551222 C39.34775,23.3638306 40.33315,22.5158722 41.25355,21.6130806 C43.095,19.7970528 44.5367,17.5965389 45.6391,15.2524139 C46.189,14.0774139 46.6505,12.8599833 47.0288,11.6184 C47.398,10.3833444 47.70545,9.08953889 47.86405,7.85448333 L48.82865,8.49746944 L48.8267,8.498775 C48.36065,8.72594167 48.0337,8.80753889 47.64045,8.933525 C47.2641,9.03862222 46.88775,9.13980278 46.51205,9.22074722 C45.7613,9.39373333 45.0099,9.53081667 44.25785,9.64896944 C42.75505,9.89180278 41.24835,10.0530389 39.7436,10.19665 C38.23885,10.3422194 36.7328,10.4453583 35.22675,10.5302194 C33.7207,10.6131222 32.214,10.6705667 30.70795,10.7084278 C29.20255,10.7619556 27.69325,10.7802333 26.18785,10.8063444 L21.6788,10.8239694 C18.6836,10.8376778 15.6871,10.9701917 12.72245,11.3350944 C11.24305,11.5204833 9.7643,11.7567889 8.32325,12.0870944 C7.58225,12.2600806 6.9004,12.4343722 6.23805,12.7274694 C5.5874,13.0257889 4.9478,13.3671917 4.3875,13.8195667 C3.25065,14.6955944 2.32635,15.8562333 1.74655,17.1715806 C1.4586,17.8289278 1.235,18.5182611 1.12515,19.2278306 C1.04715,19.5835944 1.04195,19.9269556 1.0023,20.2768444 L0.99905,20.8428028 C0.9997,20.9283167 0.99645,21.0516917 1.00035,21.1058722 L1.0114,21.3891778 L1.365,30.4399417 L1.7615,39.4894 L1.59315,39.0709694 C1.66465,39.3014 1.8031,39.4704694 1.95455,39.6271361 C2.1073,39.7838028 2.27175,39.9287194 2.4713,40.0423028 L1.3403,40.4809694 Z M1.5093,40.9196361 C1.4157,40.7094417 1.2883,40.5305806 1.1479,40.3634694 C1.00685,40.1963583 0.8528,40.04165 0.63115,39.9483028 C0.52975,39.9058722 0.46735,39.8079556 0.4654,39.7041639 L0.46215,39.5298722 L0.2977,30.4732333 L0.08905,21.4179 L0.08255,21.1345944 C0.07865,21.000775 0.0845,20.9348444 0.08515,20.8317056 L0.0962,20.2657472 C0.14105,19.8662472 0.16055,19.4510806 0.2496,19.0692056 C0.3835,18.2884833 0.63895,17.5325667 0.9659,16.8158167 C1.6185,15.3777472 2.63185,14.1087472 3.88375,13.1563444 C4.49995,12.66415 5.20065,12.2920667 5.915,11.9695944 C6.6326,11.6549556 7.4152,11.459775 8.138,11.2959278 C9.62975,10.9610528 11.12475,10.7306222 12.62885,10.54915 C15.63705,10.2057889 18.6563,10.0654417 21.6723,10.0243167 L26.182,9.979275 C27.6822,9.94337222 29.17915,9.91726111 30.67805,9.85328889 C32.1763,9.78801111 33.6726,9.70315 35.16695,9.59348333 C36.66065,9.48185833 38.1524,9.35195556 39.63765,9.180275 C41.1229,9.01446944 42.60035,8.78860833 44.05765,8.50921944 C44.78695,8.37017778 45.51105,8.21220556 46.21955,8.02485833 C46.5764,7.93542778 46.92285,7.82967778 47.268,7.72196944 C47.5878,7.61295556 47.983,7.47260833 48.1897,7.36098333 L48.1897,7.36033056 L48.2534,7.33030278 C48.5719,7.17951111 48.9515,7.31659444 49.10165,7.63645556 C49.15755,7.75526111 49.17315,7.88255278 49.15495,8.00331667 C48.94825,9.39830278 48.60765,10.6875389 48.1949,11.9865667 C47.7737,13.27515 47.268,14.5350111 46.66935,15.7511361 C45.47075,18.1762056 43.91465,20.4524417 41.94255,22.32265 C40.95715,23.2528583 39.90415,24.1210528 38.74455,24.8247472 C37.5895,25.5290944 36.38505,26.1622889 35.1104,26.6100944 C34.4877,26.8738167 33.8273,27.0233028 33.1877,27.2328444 C32.5299,27.3731917 31.8812,27.5605389 31.21625,27.6545389 C30.55325,27.7622472 29.8896,27.8634278 29.2201,27.898025 L28.2191,27.9717889 L27.21615,27.9730944 C25.89015,27.9809278 24.57065,27.9411083 23.24855,27.9724417 C21.931,28.0174833 20.618,28.1101778 19.30825,28.2355111 C18.0011,28.3928306 16.69135,28.5273028 15.4037,28.7877611 L14.4339,28.9600944 C14.11215,29.0221083 13.7969,29.1128444 13.47775,29.1879139 C12.8466,29.3609 12.1953,29.46665 11.58365,29.6970806 C10.3363,30.0815667 9.1208,30.5672333 7.99175,31.1906361 L7.15585,31.6743444 C6.87375,31.8303583 6.6378,32.0503444 6.3765,32.233775 C5.8409,32.5908444 5.4093,33.0582333 4.95755,33.5008167 C4.12685,34.4493028 3.47295,35.5400944 3.10505,36.7399 C2.7521,37.944275 2.6234,39.2080528 2.6403,40.4809694 L2.6429,40.670275 C2.6468,40.9986222 2.3855,41.2682194 2.0579,41.2727889 C1.81415,41.2760528 1.6029,41.1304833 1.5093,40.9196361 L1.5093,40.9196361 Z" id="Fill-62" fill="#586978"></path>
                                                        <path d="M46.281105,4.43027222 C46.281105,4.43027222 46.190755,4.97077222 45.960655,5.84484167 C45.730555,6.72609167 45.372405,7.97420278 44.793255,9.41423056 C44.219305,10.8536056 43.460755,12.503175 42.426605,14.1436056 C41.916355,14.9661056 41.337205,15.7846889 40.693705,16.5719389 C40.060605,17.3670222 39.356005,18.1262028 38.609155,18.8390361 C38.235405,19.1948 37.836955,19.5257583 37.446955,19.8599806 C37.032255,20.1648278 36.642255,20.4997028 36.214555,20.7745222 C35.788805,21.0526056 35.378655,21.3463556 34.937955,21.58005 C34.507005,21.8307167 34.079305,22.0728972 33.637305,22.2706889 C33.204405,22.4861056 32.772805,22.68455 32.336005,22.8444806 C31.904405,23.0181194 31.485155,23.1937167 31.059405,23.3183972 C30.223505,23.6128 29.410355,23.8073278 28.662855,24.0057722 C27.904955,24.1441611 27.215305,24.3380361 26.590655,24.4020083 C25.967305,24.4738139 25.424555,24.5900083 24.974105,24.6187306 C24.073855,24.6990222 23.555155,24.7656056 23.555155,24.7656056 C23.197005,24.8106472 22.869405,24.5560639 22.823905,24.1957306 C22.778405,23.8353972 23.031905,23.5063972 23.390705,23.4607028 C23.432305,23.4554806 23.473255,23.454175 23.513555,23.4567861 L23.555155,23.46005 C23.555155,23.46005 24.048505,23.4933417 24.918205,23.5168417 C25.355005,23.5507861 25.878905,23.5018278 26.484705,23.4698417 C27.092455,23.454175 27.763905,23.3268833 28.506855,23.2394111 C29.232905,23.0749111 30.031755,22.9293417 30.840355,22.6460361 C31.252455,22.5291889 31.661955,22.3718694 32.076655,22.1988833 C32.497855,22.0415639 32.912555,21.8457306 33.327905,21.6335778 C33.752355,21.4397028 34.162505,21.2020917 34.574605,20.9566472 C34.997105,20.7288278 35.389705,20.4409528 35.797255,20.1693972 C36.206755,19.9017583 36.579205,19.5747167 36.975705,19.2783556 C37.348155,18.9519667 37.729055,18.6308 38.085905,18.2848278 C38.796355,17.5883139 39.476905,16.8578556 40.070355,16.075175 C40.669005,15.2977167 41.206555,14.4928417 41.676505,13.68405 C42.160755,12.8837444 42.554655,12.0671194 42.921905,11.292925 C43.269655,10.5082861 43.581655,9.75955 43.816305,9.04802222 C44.310305,7.63410556 44.601505,6.41928611 44.777655,5.57002222 C44.947305,4.71096667 44.994755,4.242925 44.994755,4.242925 C45.030505,3.88389722 45.349655,3.62278611 45.707155,3.65868889 C46.064655,3.69524444 46.325305,4.01575833 46.288905,4.37478611 C46.287605,4.38849444 46.285655,4.40155 46.283705,4.41460556 L46.281105,4.43027222 Z" id="Fill-64" fill="#586978"></path>
                                                        <path d="M42.95434,1.07884583 C42.95434,1.07884583 42.87634,1.57234583 42.68914,2.38048472 C42.50324,3.19515139 42.20749,4.34795694 41.75574,5.69920694 C41.29489,7.0458875 40.70534,8.60210972 39.89934,10.1896653 C39.48529,10.9775681 39.04849,11.7876653 38.52914,12.5664292 C38.02929,13.3556375 37.46769,14.1246097 36.86514,14.8602903 C36.24634,15.5816097 35.60609,16.2898736 34.89304,16.9008736 C34.20079,17.5334153 33.44874,18.0745681 32.70189,18.5628458 C32.32489,18.8024153 31.93424,19.0054292 31.56309,19.2214986 C31.17634,19.4088458 30.79804,19.5922764 30.42949,19.7704847 C30.04859,19.9212764 29.67874,20.0681514 29.31994,20.2098042 C28.96114,20.3501514 28.59974,20.4421931 28.25914,20.5538181 C27.92049,20.6713181 27.58639,20.7489986 27.26919,20.8247208 C26.95069,20.8965264 26.65169,20.9885681 26.36374,21.0316514 C25.78849,21.1112903 25.28734,21.2268319 24.87069,21.2725264 C24.03739,21.3560819 23.55509,21.4239708 23.55509,21.4239708 C23.19694,21.4742347 22.86544,21.2229153 22.81539,20.8625819 C22.76599,20.5022486 23.01624,20.1699847 23.37439,20.1197208 C23.41924,20.1131931 23.46409,20.1118875 23.50764,20.1144986 L23.55509,20.1184153 C23.55509,20.1184153 24.00359,20.1504014 24.79854,20.1719431 C25.19569,20.1889153 25.67409,20.1419153 26.22659,20.1040542 C26.50349,20.0870819 26.79014,20.0231097 27.09824,19.9813319 C27.40439,19.9323736 27.73134,19.8951653 28.05764,19.7979014 C28.38524,19.7058597 28.73559,19.6340542 29.08334,19.5152486 C29.42979,19.3931792 29.78859,19.2639292 30.15194,19.1203181 C30.50489,18.9519014 30.87474,18.7932764 31.24069,18.6059292 C31.59364,18.3950819 31.96479,18.1979431 32.32294,17.9649014 C33.03274,17.4903319 33.74709,16.9661514 34.40424,16.3525403 C35.08154,15.7611236 35.68994,15.0730958 36.27819,14.3733181 C36.84889,13.6572208 37.39164,12.9163181 37.85574,12.1401653 C38.33414,11.3731514 38.73324,10.5748042 39.11089,9.80060972 C39.83694,8.23655417 40.38749,6.71754028 40.75994,5.38848472 C41.13109,4.05812361 41.36444,2.93142917 41.49834,2.14222083 C41.62704,1.34517917 41.66539,0.909776389 41.66539,0.909776389 C41.69659,0.550748611 42.01249,0.285068056 42.37064,0.317054167 C42.72814,0.3483875 42.99269,0.6656375 42.96149,1.02531806 C42.96019,1.03967917 42.95824,1.05404028 42.95629,1.06840139 L42.95434,1.07884583 Z" id="Fill-66" fill="#586978"></path>
                                                        <path d="M28.724085,58.2034292 C28.724085,58.2034292 28.563535,58.2954708 28.282085,58.4573597 C27.995435,58.6205542 27.566435,58.8248736 27.041235,59.0187486 C26.516685,59.2152347 25.886185,59.3719014 25.210835,59.4756931 C24.873485,59.5331375 24.523785,59.5703458 24.168885,59.5984153 C23.810735,59.6206097 23.460385,59.6290958 23.088585,59.6264847 C22.746685,59.6160403 22.389185,59.6147347 22.028435,59.5951514 C21.675485,59.5729569 21.327735,59.5429292 20.991035,59.4959292 C20.320235,59.3940958 19.685185,59.2779014 19.148285,59.0918597 C18.613985,58.9038597 18.162235,58.6923597 17.859985,58.4775958 C17.556435,58.2687069 17.390685,58.0944153 17.390685,58.0944153 L17.378985,58.0813597 C17.130035,57.8202486 17.139785,57.4057347 17.400435,57.1557208 C17.660435,56.9063597 18.073185,56.9161514 18.322135,57.1772625 C18.341635,57.1981514 18.361135,57.2223042 18.377385,57.2444986 C18.377385,57.2444986 18.394935,57.2686514 18.428735,57.3149986 C18.459285,57.3613458 18.518435,57.4318458 18.606185,57.5134431 C18.782985,57.6753319 19.087185,57.9096792 19.526585,58.0976792 C19.964035,58.2843736 20.514585,58.4691097 21.131435,58.5637625 C21.759335,58.6636375 22.396985,58.7321792 23.102885,58.7236931 C23.425935,58.7171653 23.769785,58.7008458 24.094135,58.6721236 C24.420435,58.6375264 24.740235,58.5957486 25.043785,58.5363458 C25.651535,58.4097069 26.192985,58.2177903 26.632385,58.0167347 C27.071785,57.8111097 27.400685,57.5819847 27.626885,57.4187903 C27.838135,57.2582069 27.976585,57.1354847 27.976585,57.1354847 C28.246985,56.8946097 28.660385,56.9200681 28.900235,57.1916236 C29.139435,57.4631792 29.114085,57.8783458 28.843685,58.1192208 C28.810535,58.1485958 28.774785,58.1740542 28.737735,58.1955958 L28.724085,58.2034292 Z" id="Fill-68" fill="#586978"></path>
                                                        <path d="M20.6141,62.008275 L25.7712,62.008275" id="Stroke-70" stroke="#586978" stroke-width="1.3" stroke-linecap="round"></path>
                                                    </g>
                                                </g>
                                            </g>
                                        </g>
                                        <g id="Group-56" transform="translate(0.000000, 1.000000)">
                                            <path d="M38.89955,1.02172 L7.26716765,1.02172 C3.75737353,1.02172 0.912491176,3.90292 0.912491176,7.45752 L0.912491176,23.37272 C0.912491176,26.92732 3.75737353,29.80852 7.26716765,29.80852 L7.26716765,29.80852 C8.78084412,29.80852 10.0083735,31.05172 10.0083735,32.58472 L10.0083735,33.29732 L12.8504912,30.42592 C13.2416971,30.03112 13.7711382,29.80852 14.3240794,29.80852 L38.89955,29.80852 C42.4093441,29.80852 45.2542265,26.92732 45.2542265,23.37272 L45.2542265,7.45752 C45.2542265,3.90292 42.4093441,1.02172 38.89955,1.02172" id="Fill-35" fill="#FFFFFF" transform="translate(23.083359, 17.159520) scale(-1, 1) translate(-23.083359, -17.159520) "></path>
                                            <g id="Group-39" fill="#42457B">
                                                <path d="M38.89955,0.57778 C40.3634618,0.59458 41.8342853,1.07058 42.9913147,1.98618 C44.1649324,2.87798 45.0275206,4.17158 45.4159618,5.60098 C45.5196382,5.95378 45.5818441,6.32898 45.6288441,6.70978 C45.6551088,7.04998 45.6758441,7.43358 45.6703147,7.77938 L45.6647853,9.86398 L45.6551088,14.03598 L45.6412853,22.37858 C45.6329912,23.05758 45.6744618,23.78558 45.5362265,24.52338 C45.4104324,25.24858 45.1754324,25.95558 44.8312265,26.60658 C44.1262265,27.89178 43.0286382,28.96978 41.6946676,29.56618 C41.0283735,29.86858 40.3358147,30.06598 39.5838147,30.14858 C38.89955,30.19898 38.1751971,30.18358 37.5047559,30.19198 L33.3867265,30.21578 L25.1492853,30.26618 L16.9118441,30.32358 L14.8521382,30.33758 L14.3365206,30.34178 C14.2024324,30.34318 14.0794029,30.35998 13.9522265,30.38798 C13.7061676,30.44258 13.4573441,30.57838 13.2831676,30.73378 C12.3293441,31.69698 11.2994912,32.64758 10.3567265,33.65138 L9.48307941,34.58238 L9.51487353,33.29718 L9.51487353,33.26778 L9.53146176,32.63778 C9.53422647,32.44458 9.51763824,32.28498 9.48584412,32.10998 C9.41396176,31.76978 9.26605,31.44778 9.05593235,31.17338 C8.63431471,30.61338 7.93760882,30.31938 7.26716765,30.33478 L7.26716765,30.33478 C5.75763824,30.35438 4.19834412,29.89238 3.00675588,28.90818 C1.81378529,27.94218 0.934608824,26.57718 0.59455,25.07358 C0.407932353,24.30918 0.380285294,23.51258 0.405167647,22.82938 L0.43005,20.69858 L0.475667647,16.43838 L0.561373529,7.91798 C0.507461765,6.47318 0.872402941,4.91638 1.70043235,3.67738 C2.53122647,2.44118 3.75875588,1.47238 5.17013824,1.00618 C5.86960882,0.77238 6.63957941,0.66458 7.35010882,0.66038 L9.45266765,0.65618 L13.6591676,0.65058 L22.07355,0.63098 L38.89955,0.57778 Z M38.89955,1.46538 L22.07355,1.41218 L13.6591676,1.39258 L9.45266765,1.38698 C8.04957941,1.41498 6.61331471,1.25118 5.39131471,1.68798 C4.12922647,2.09958 3.02610882,2.96338 2.27687353,4.07078 C1.54146176,5.19918 1.18205,6.52358 1.26360882,7.91798 L1.34931471,16.43838 L1.39493235,20.69858 L1.41981471,22.82938 C1.41013824,23.56298 1.46266765,24.19858 1.62578529,24.81178 C1.93957941,26.07458 2.70955,27.20018 3.72005,27.98138 C4.72225588,28.78358 5.98019706,29.22878 7.26716765,29.28338 L7.26716765,30.33478 L7.26716765,29.28338 C8.25831471,29.29878 9.20937353,29.80418 9.79825588,30.58538 C10.0968441,30.97318 10.3097265,31.42958 10.4120206,31.91258 C10.5143147,32.42358 10.4783735,32.86458 10.5004912,33.26778 L10.5018735,33.29718 L9.66002059,32.94298 C10.6636088,31.98398 11.5718147,30.96618 12.5698735,29.97218 C12.9044029,29.66278 13.2804029,29.46258 13.7020206,29.35198 C13.9079912,29.29878 14.1291676,29.27358 14.3365206,29.27638 L14.8521382,29.27918 L16.9118441,29.29458 L25.1492853,29.35198 L33.3867265,29.40238 L37.5047559,29.42618 C38.2069912,29.42338 38.8566971,29.45558 39.5437265,29.39818 C40.1561088,29.32538 40.8002853,29.14758 41.3836382,28.87738 C42.5683147,28.34538 43.5373441,27.38078 44.1607853,26.23978 C44.4635206,25.66298 44.6694912,25.03578 44.7786971,24.39318 C44.9003441,23.76038 44.8616382,23.08698 44.8671676,22.37858 L44.8533441,14.03598 L44.8436676,9.86398 C44.7952853,8.49618 44.9722265,7.01078 44.6086676,5.83058 C44.2616971,4.58178 43.5027853,3.45338 42.4729324,2.67918 C41.4582853,1.88118 40.1768441,1.47798 38.89955,1.46538 L38.89955,1.46538 Z" id="Fill-37" transform="translate(23.034303, 17.580080) scale(-1, 1) translate(-23.034303, -17.580080) "></path>
                                            </g>
                                            <path d="M9.20647059,8.02172 L39.6182353,8.02172" id="Fill-40" fill="#E8E7EE"></path>
                                            <path d="M8.87125,8.32342 C8.87125,8.32342 10.7636912,8.16382 13.6030441,8.04062 C15.0227206,7.99442 16.6787794,7.90902 18.4523382,7.87542 C20.2272794,7.83062 22.1197206,7.82082 24.0121618,7.80682 C25.9046029,7.81382 27.7970441,7.81662 29.5719853,7.85582 C31.3455441,7.88102 33.0016029,7.96222 34.4212794,8.00282 C37.2606324,8.11622 39.1530735,8.27162 39.1530735,8.27162 C39.28025,8.28142 39.3756324,8.39622 39.3659559,8.52502 C39.3562794,8.64262 39.2650441,8.73222 39.1530735,8.74202 C39.1530735,8.74202 37.2606324,8.89602 34.4212794,9.00942 C33.0016029,9.05002 31.3455441,9.13122 29.5719853,9.15782 C27.7970441,9.19562 25.9046029,9.19982 24.0121618,9.20542 C22.1197206,9.19282 20.2272794,9.18162 18.4523382,9.13682 C16.6787794,9.10322 15.0227206,9.01782 13.6030441,8.97302 C10.7636912,8.84982 8.87125,8.68882 8.87125,8.68882 C8.77172059,8.68042 8.69707353,8.59222 8.70536765,8.49142 C8.71366176,8.40042 8.78416176,8.33042 8.87125,8.32342" id="Fill-42" fill="#42457B"></path>
                                            <path d="M9.20647059,13.62172 L34.0888235,13.62172" id="Fill-44" fill="#E8E7EE"></path>
                                            <path d="M8.87125,12.84108 C8.87125,12.84108 10.42225,12.69688 12.7473676,12.59048 C13.9099265,12.55548 15.2673971,12.47428 16.72025,12.46028 C18.1744853,12.44488 19.7241029,12.42948 21.2751029,12.41268 C22.8261029,12.43788 24.3757206,12.46448 25.8299559,12.48828 C27.2828088,12.50788 28.6402794,12.60168 29.8028382,12.64368 C32.1279559,12.76268 33.6789559,12.91808 33.6789559,12.91808 C33.7840147,12.92928 33.8614265,13.02448 33.85175,13.13088 C33.8420735,13.22608 33.7674265,13.29748 33.6789559,13.30588 C33.6789559,13.30588 32.1279559,13.46128 29.8028382,13.58168 C28.6402794,13.62368 27.2828088,13.71608 25.8299559,13.73568 C24.3757206,13.76088 22.8261029,13.78608 21.2751029,13.81128 C19.7241029,13.79588 18.1744853,13.77908 16.72025,13.76368 C15.2673971,13.75108 13.9099265,13.66848 12.7473676,13.63348 C10.42225,13.52848 8.87125,13.38428 8.87125,13.38428 C8.72333824,13.37028 8.61413235,13.23728 8.62795588,13.08748 C8.64039706,12.95448 8.74407353,12.85228 8.87125,12.84108" id="Fill-46" fill="#42457B"></path>
                                            <path d="M9.20647059,17.82172 L32.7064706,17.82172" id="Fill-48" fill="#E8E7EE"></path>
                                            <path d="M8.87125,17.44708 C8.87125,17.44708 10.3697206,17.30988 12.6160441,17.20628 C13.7398971,17.17128 15.0503676,17.09288 16.4548382,17.07608 C17.8579265,17.05788 19.3563971,17.03828 20.8548676,17.01868 C22.3519559,17.03828 23.8504265,17.05648 25.2548971,17.07468 C26.6593676,17.09008 27.9698382,17.17128 29.0923088,17.20628 C31.3400147,17.30848 32.8371029,17.44708 32.8371029,17.44708 C32.9850147,17.46108 33.0942206,17.59268 33.0817794,17.74248 C33.0693382,17.87548 32.9642794,17.97768 32.8371029,17.99028 C32.8371029,17.99028 31.3400147,18.12748 29.0923088,18.23108 C27.9698382,18.26608 26.6593676,18.34728 25.2548971,18.36128 C23.8504265,18.37948 22.3519559,18.39908 20.8548676,18.41728 C19.3563971,18.39908 17.8579265,18.37948 16.4548382,18.36128 C15.0503676,18.34448 13.7398971,18.26468 12.6160441,18.22968 C10.3697206,18.12608 8.87125,17.99028 8.87125,17.99028 C8.72333824,17.97628 8.61413235,17.84328 8.62795588,17.69348 C8.63901471,17.56048 8.74407353,17.45828 8.87125,17.44708" id="Fill-50" fill="#42457B"></path>
                                            <path d="M9.20647059,22.02172 L31.3241176,22.02172" id="Fill-52" fill="#E8E7EE"></path>
                                            <path d="M8.87125,22.05308 C8.87125,22.05308 10.3006029,21.91308 12.44325,21.80808 C13.5145735,21.77308 14.7656029,21.69188 16.1051029,21.67788 C17.4446029,21.66108 18.8739559,21.64288 20.3019265,21.62468 C21.7312794,21.64708 23.1606324,21.66948 24.5001324,21.69048 C25.8396324,21.70728 27.0892794,21.79548 28.1619853,21.83328 C30.3046324,21.94528 31.7339853,22.09228 31.7339853,22.09228 C31.8611618,22.10488 31.9523971,22.21968 31.9399559,22.34848 C31.9288971,22.46048 31.8404265,22.54588 31.7339853,22.55708 C31.7339853,22.55708 30.3046324,22.70408 28.1619853,22.81468 C27.0892794,22.85388 25.8396324,22.94068 24.5001324,22.95748 C23.1606324,22.97848 21.7312794,23.00088 20.3019265,23.02328 C18.8739559,23.00648 17.4446029,22.98828 16.1051029,22.97148 C14.7656029,22.95608 13.5145735,22.87628 12.44325,22.84128 C10.3006029,22.73628 8.87125,22.59628 8.87125,22.59628 C8.72333824,22.58088 8.61551471,22.44788 8.62933824,22.29808 C8.64177941,22.16648 8.74545588,22.06568 8.87125,22.05308" id="Fill-54" fill="#42457B"></path>
                                        </g>
                                    </g>
                                </g>
                            </g>
                        </g>
                    </g>
                </g>
            </g>
        </g>
    </g>
</svg>