<?xml version="1.0" encoding="UTF-8"?>
<svg width="69px" height="74px" viewBox="0 0 69 74" version="1.1" xmlns="http://www.w3.org/2000/svg" xmlns:xlink="http://www.w3.org/1999/xlink">
    <!-- Generator: Sketch 46.2 (44496) - http://www.bohemiancoding.com/sketch -->
    <title>conflux-logo</title>
    <desc>Created with Sketch.</desc>
    <defs>
        <path d="M522.812508,371.893903 C524.093776,370.582559 526.168221,370.579804 527.449489,371.888487 C528.730756,373.199831 528.730756,375.320217 527.449489,376.628901 L513.554517,390.84463 C512.275849,392.153219 510.201403,392.153219 508.922828,390.84463 L501.972696,383.742182 C500.694029,382.433499 500.694029,380.310357 501.972696,379.004524 C503.253963,377.69318 505.347443,378.129819 505.681779,378.338874 L511.23338,380.937521 L522.812508,371.893903 Z M546.312992,398.799547 C546.310393,398.799547 546.310393,398.802208 546.310393,398.802208 C546.050426,399.280089 545.782474,399.752457 545.503937,400.214089 C540.482298,408.600704 532.27216,414.793574 522.584387,417.060584 C519.952868,417.67416 517.212628,418 514.395418,418 C504.803183,418 496.07571,414.22618 489.573836,408.060392 C488.955764,407.471238 488.35626,406.863078 487.777926,406.233158 C481.711126,399.622178 478,390.752266 478,381.000048 C478,378.135711 478.318274,375.350055 478.925762,372.675864 C482.63958,356.250044 497.110194,344 514.395418,344 C527.57418,344 539.118862,351.121453 545.503937,361.783251 C545.785166,362.252959 546.055718,362.728084 546.318285,363.21138 C547.939181,366.890176 546.594221,371.293916 543.084663,373.351871 C539.535274,375.434247 535.052139,374.372724 532.752264,371.016918 C532.542712,370.617814 532.319883,370.22422 532.083777,369.841365 C528.409789,363.835789 521.862792,359.839326 514.395418,359.839326 C502.901151,359.839326 493.582067,369.314642 493.582067,381.000048 C493.582067,383.033581 493.863296,384.999172 494.391215,386.859 C494.452214,387.076132 494.515814,387.293359 494.58749,387.510586 C494.59009,387.518758 494.592782,387.529591 494.595475,387.540423 C496.030587,392.617511 495.50536,397.814044 493.470652,402.274704 C497.85825,400.203161 502.967442,399.671021 507.962528,401.128989 C507.973112,401.131744 507.983789,401.134405 507.991681,401.137161 C508.203926,401.207764 508.41877,401.275612 508.633708,401.338043 C510.464063,401.872939 512.397848,402.158014 514.395418,402.158014 C521.865485,402.158014 528.412389,398.16155 532.086469,392.155974 C532.319883,391.773119 532.540019,391.384847 532.749571,390.985742 C535.049539,387.627371 539.535274,386.565753 543.081971,388.648129 C546.594221,390.70884 547.94178,395.120752 546.312992,398.799547 Z" id="path-1"></path>
    </defs>
    <g id="Components" stroke="none" stroke-width="1" fill="none" fill-rule="evenodd">
        <g id="Homepage" transform="translate(-606.000000, -1847.000000)">
            <g id="Feedback-Management" transform="translate(0.000000, 1272.000000)">
                <g id="Illustration" transform="translate(128.000000, 231.000000)">
                    <g id="Group-38">
                        <g id="conflux-logo">
                            <use fill-opacity="0.190726902" fill="#03CAFF" fill-rule="evenodd" xlink:href="#path-1"></use>
                            <path stroke-opacity="0.340466486" stroke="#299BB9" stroke-width="1.5" d="M523.348955,372.418046 L523.27416,372.484985 L511.332286,381.811917 L510.915423,381.616788 L505.284151,378.974792 C504.839496,378.696757 503.261106,378.759052 502.508571,379.529251 C501.515308,380.543615 501.515308,382.200876 502.508743,383.217631 L509.459275,390.320488 C510.443616,391.327936 512.033657,391.327936 513.01817,390.320386 L526.913575,376.104214 C527.909483,375.086996 527.909483,373.43246 526.913575,372.413174 C525.926921,371.405408 524.336474,371.407345 523.348955,372.418046 Z M545.64393,398.457844 C547.104606,395.107476 545.847709,391.140406 542.702236,389.294892 C539.5169,387.424681 535.460033,388.355313 533.413605,391.334397 C533.197196,391.74656 532.969243,392.148792 532.726241,392.547373 C528.815882,398.939163 521.943946,402.908014 514.395418,402.908014 C512.352264,402.908014 510.346775,402.620033 508.424506,402.058276 C508.217808,401.998238 508.004471,401.931507 507.771183,401.854125 C507.76823,401.853312 507.762765,401.851807 507.752386,401.848947 C503.060586,400.479503 498.136949,400.900967 493.790859,402.952913 L491.937889,403.827768 L492.788289,401.963448 C494.806947,397.537974 495.222894,392.524018 493.869704,387.728709 C493.803456,387.52689 493.741575,387.319587 493.669719,387.063799 C493.115713,385.112072 492.832067,383.076626 492.832067,381.000048 C492.832067,368.902944 502.484366,359.089326 514.395418,359.089326 C521.941686,359.089326 528.813509,363.058536 532.722146,369.447684 C532.962822,369.83795 533.194341,370.245535 533.370918,370.592929 C535.462944,373.645456 539.517697,374.575012 542.705287,372.704898 C545.858806,370.85572 547.112356,366.873717 545.659262,363.569416 C545.39878,363.089956 545.133327,362.624269 544.860498,362.16859 C538.433785,351.437264 526.980799,344.75 514.395418,344.75 C497.703389,344.75 483.348965,356.513409 479.657128,372.842006 C479.055775,375.489193 478.75,378.219912 478.75,381.000048 C478.75,390.306735 482.211559,399.05825 488.330395,405.725932 C488.887969,406.33324 489.474477,406.929537 490.089914,407.516183 C496.645358,413.732772 505.25004,417.25 514.395418,417.25 C517.11794,417.25 519.801562,416.939321 522.413498,416.330312 C531.786711,414.136911 539.879635,408.147265 544.861775,399.826625 C545.119068,399.400203 545.377282,398.947593 545.64393,398.457844 Z M545.633265,398.482186 C545.635393,398.477351 545.637517,398.472514 545.639634,398.467677 C545.641069,398.4644 545.6425,398.461122 545.64393,398.457844 C545.646475,398.453169 545.649022,398.44849 545.651569,398.443807 L546.310393,398.802208 L545.560393,398.802208 C545.560696,398.700082 545.560707,398.696173 545.628425,398.496455 C545.630001,398.491806 545.631614,398.487051 545.633264,398.482186 C545.634436,398.478735 545.635625,398.475228 545.636835,398.471664 C545.637772,398.470329 545.638705,398.469 545.639634,398.467677 C545.6449,398.460177 545.65004,398.452857 545.655065,398.44571 C545.860419,398.153632 545.872739,398.150798 546.312992,398.049547 L546.312992,398.799547 L545.627203,398.495914 C545.629229,398.491339 545.631249,398.486763 545.633265,398.482186 Z"></path>
                        </g>
                    </g>
                </g>
            </g>
        </g>
    </g>
</svg>