<?xml version="1.0" encoding="UTF-8"?>
<svg width="214px" height="50px" viewBox="0 0 214 50" version="1.1" xmlns="http://www.w3.org/2000/svg" xmlns:xlink="http://www.w3.org/1999/xlink">
    <!-- Generator: Sketch 46.2 (44496) - http://www.bohemiancoding.com/sketch -->
    <title>lightspeed</title>
    <desc>Created with Sketch.</desc>
    <defs></defs>
    <g id="Page-1" stroke="none" stroke-width="1" fill="none" fill-rule="evenodd">
        <g id="lightspeed" fill-rule="nonzero" fill="#99A9C1">
            <path d="M16.6244211,0.405405405 L18.8770526,4.32432432 C19.3275789,5.13513514 19.3275789,6.12612613 18.8770526,6.93693694 L5.45136842,30.2252252 L11.8037895,41.2162162 C12.7949474,42.9279279 14.6421053,44.009009 16.6244211,44.009009 C18.6067368,44.009009 20.4538947,42.9279279 21.4450526,41.2162162 L27.7974737,30.2252252 L26.1305263,27.2522523 L18.9221053,39.7297297 C18.4715789,40.5405405 17.5705263,41.036036 16.6694737,41.036036 C15.7233684,41.036036 14.8673684,40.5405405 14.4168421,39.7297297 L8.87536842,30.2252252 L21.3549474,8.6036036 L23.6075789,12.5225225 C24.0581053,13.3333333 24.0581053,14.3243243 23.6075789,15.1351351 L14.9124211,30.2252252 L16.6244211,33.1981982 L26.0854737,16.8018018 L32.3027368,27.5675676 C33.2488421,29.2342342 33.2488421,31.2612613 32.3027368,32.9279279 L25.9953684,43.8738739 C25.0492632,45.5405405 22.0307368,49.2792793 16.6244211,49.2792793 C11.2181053,49.2792793 8.24463158,45.5405405 7.25347368,43.8738739 L0.946105263,32.9279279 C-9.15933995e-16,31.2612613 -9.15933995e-16,29.2342342 0.946105263,27.5675676 L16.6244211,0.405405405" id="Shape"></path>
            <g id="Group" transform="translate(45.953684, 11.261261)">
                <polygon id="Shape" points="0 0.810810811 4.37010526 0.810810811 4.37010526 26.6216216 0 26.6216216"></polygon>
                <ellipse id="Oval" cx="10.2269474" cy="2.97297297" rx="2.568" ry="2.56756757"></ellipse>
                <path d="M8.01936842,8.69369369 L12.4345263,8.69369369 L12.4345263,26.6216216 L8.01936842,26.6216216 L8.01936842,8.69369369 Z M24.0130526,8.24324324 C19.0122105,8.24324324 14.9574737,11.7567568 14.9574737,17.3423423 C14.9574737,22.9279279 18.4715789,26.3513514 24.0581053,26.3513514 C26.2656842,26.3513514 28.6084211,27.4774775 28.6084211,29.954955 C28.6084211,32.4324324 26.6261053,33.8288288 24.0581053,33.8288288 C21.4901053,33.8288288 19.3726316,32.2972973 19.3726316,29.954955 L14.9574737,29.954955 C14.9574737,34.7747748 18.832,37.972973 24.0581053,37.972973 C29.2391579,37.972973 33.0235789,34.9099099 33.0235789,29.954955 C33.0235789,27.6576577 32.3027368,25.4954955 29.3292632,24.009009 C32.2576842,22.6576577 33.1136842,19.5495495 33.1136842,17.2972973 C33.1136842,11.7567568 29.0138947,8.24324324 24.0130526,8.24324324 L24.0130526,8.24324324 Z M24.0581053,22.7027027 C21.4901053,22.7027027 19.3726316,20.4954955 19.3726316,17.3423423 C19.3726316,14.2342342 21.4901053,11.9369369 24.0581053,11.9369369 C26.6261053,11.9369369 28.6985263,14.2792793 28.6985263,17.3423423 C28.6985263,20.4504505 26.5810526,22.7027027 24.0581053,22.7027027 L24.0581053,22.7027027 Z M45.9086316,8.24324324 C43.8812632,8.24324324 41.944,8.87387387 40.3221053,10.9009009 L40.3221053,0.765765766 L35.9069474,0.765765766 L35.9069474,26.5765766 L40.3221053,26.5765766 L40.3221053,17.4774775 C40.3221053,14.8198198 42.1242105,12.6126126 44.7372632,12.6126126 C47.08,12.6126126 48.792,14.009009 48.792,17.2522523 L48.792,26.5765766 L53.2071579,26.5765766 L53.2071579,16.9369369 C53.2522105,11.6666667 50.9995789,8.24324324 45.9086316,8.24324324 L45.9086316,8.24324324 Z M63.9747368,23.5585586 C63.4341053,23.5585586 62.9835789,23.3783784 62.7132632,23.018018 C62.4429474,22.6576577 62.3077895,22.1171171 62.3077895,21.3063063 L62.3077895,12.4774775 L65.8669474,12.4774775 L66.2724211,8.64864865 L62.3528421,8.64864865 L62.3528421,3.73873874 L57.8926316,4.23423423 L57.8926316,8.69369369 L54.5136842,8.69369369 L54.5136842,12.5225225 L57.8926316,12.5225225 L57.8926316,21.4414414 C57.8926316,23.2882883 58.3431579,24.6846847 59.1991579,25.6306306 C60.0551579,26.5765766 61.3616842,27.0720721 63.0286316,27.0720721 C63.7945263,27.0720721 64.5153684,26.981982 65.2812632,26.7567568 C66.0471579,26.5315315 66.7229474,26.2162162 67.3086316,25.8108108 L65.7768421,22.972973 C65.1911579,23.3783784 64.5604211,23.5585586 63.9747368,23.5585586 Z M82.1309474,16.981982 C80.3288421,15.8558559 78.2113684,15.7207207 76.1389474,15.5855856 C74.9225263,15.4954955 73.0753684,15.2252252 73.0753684,13.6486486 C73.0753684,12.5225225 74.2467368,11.8918919 76.3642105,11.8918919 C78.0762105,11.8918919 79.5629474,12.2972973 80.8244211,13.4684685 L83.3023158,10.5855856 C81.2298947,8.78378378 79.1124211,8.24324324 76.2741053,8.24324324 C72.9852632,8.24324324 68.6602105,9.68468468 68.6602105,13.8288288 C68.6602105,15.5405405 69.5612632,17.1171171 71.048,18.018018 C72.7149474,19.0540541 74.8774737,19.1891892 76.7246316,19.4144144 C77.9861053,19.5495495 80.0585263,19.8648649 79.6981053,21.6216216 C79.4728421,22.8378378 77.9861053,23.1981982 76.9498947,23.2432432 C75.8235789,23.2882883 74.6972632,23.1981982 73.5709474,22.9279279 C72.3995789,22.6126126 71.4534737,22.0720721 70.4172632,21.3963964 L68.1646316,24.2342342 C68.2997895,24.3243243 68.4349474,24.4594595 68.4349474,24.4594595 C71.3183158,26.8468468 75.328,27.6126126 78.9772632,26.8018018 C81.7254737,26.1711712 84.0682105,24.1891892 84.0682105,21.2162162 C84.1583158,19.5495495 83.6176842,17.8828829 82.1309474,16.981982 Z M96.6829474,8.24324324 C94.6555789,8.24324324 92.2677895,9.0990991 90.8711579,11.0810811 L90.736,8.64864865 L86.456,8.64864865 L86.456,34.4594595 L90.8711579,33.963964 L90.8711579,24.5045045 C92.1326316,26.4414414 94.8808421,27.0720721 96.7730526,27.0720721 C102.494737,27.0720721 105.828632,22.7927928 105.828632,17.6126126 C105.828632,12.3423423 102.179368,8.24324324 96.6829474,8.24324324 L96.6829474,8.24324324 Z M96.3225263,23.2432432 C93.304,23.2432432 91.2766316,20.4954955 91.2766316,17.7027027 C91.2766316,14.9099099 93.1688421,11.9369369 96.3225263,11.9369369 C99.5212632,11.9369369 101.368421,14.954955 101.368421,17.7027027 C101.413474,20.4954955 99.3410526,23.2432432 96.3225263,23.2432432 Z M111.595368,19.2342342 C112.090947,21.3513514 114.028211,23.1981982 117.181895,23.1981982 C118.803789,23.1981982 120.966316,22.3873874 122.002526,21.3513514 L124.840842,24.1441441 C122.948632,26.0810811 119.84,27.027027 117.136842,27.027027 C111.550316,27.027027 107.495579,23.3333333 107.495579,17.6126126 C107.495579,12.2072072 111.685474,8.24324324 116.821474,8.24324324 C122.227789,8.24324324 126.733053,11.9369369 126.282526,19.2342342 L111.595368,19.2342342 L111.595368,19.2342342 Z M122.002526,15.8558559 C121.506947,13.7387387 119.389474,11.8918919 116.821474,11.8918919 C114.433684,11.8918919 112.226105,13.5135135 111.595368,15.8558559 L122.002526,15.8558559 Z M132.049263,19.2342342 C132.544842,21.3513514 134.482105,23.1981982 137.635789,23.1981982 C139.257684,23.1981982 141.420211,22.3873874 142.456421,21.3513514 L145.294737,24.1441441 C143.402526,26.0810811 140.293895,27.027027 137.590737,27.027027 C132.004211,27.027027 127.949474,23.3333333 127.949474,17.6126126 C127.949474,12.2072072 132.139368,8.24324324 137.275368,8.24324324 C142.681684,8.24324324 147.186947,11.9369369 146.736421,19.2342342 L132.049263,19.2342342 L132.049263,19.2342342 Z M142.501474,15.8558559 C142.005895,13.7387387 139.888421,11.8918919 137.320421,11.8918919 C134.932632,11.8918919 132.725053,13.5135135 132.094316,15.8558559 L142.501474,15.8558559 Z M157.413895,27.0720721 C159.441263,27.0720721 161.829053,26.2162162 163.225684,24.2342342 L163.360842,26.6216216 L167.640842,26.6216216 L167.640842,0.810810811 L163.225684,0.810810811 L163.225684,10.8108108 C161.964211,8.87387387 159.170947,8.28828829 157.278737,8.28828829 C151.557053,8.28828829 148.268211,12.5225225 148.268211,17.7477477 C148.268211,22.972973 151.917474,27.0720721 157.413895,27.0720721 Z M157.729263,12.0720721 C160.747789,12.0720721 162.775158,14.8198198 162.775158,17.6126126 C162.775158,20.4054054 160.882947,23.3783784 157.729263,23.3783784 C154.530526,23.3783784 152.683368,20.3603604 152.683368,17.6126126 C152.683368,14.8198198 154.710737,12.0720721 157.729263,12.0720721 Z" id="Shape"></path>
            </g>
        </g>
    </g>
</svg>