<?xml version="1.0" encoding="UTF-8"?>
<svg width="124px" height="20px" viewBox="0 0 124 20" version="1.1" xmlns="http://www.w3.org/2000/svg" xmlns:xlink="http://www.w3.org/1999/xlink">
    <!-- Generator: Sketch 46.2 (44496) - http://www.bohemiancoding.com/sketch -->
    <title>logo</title>
    <desc>Created with Sketch.</desc>
    <defs>
        <path d="M12.0556566,13.5388928 L8.94058908,15.9831138 L7.44707312,15.2807768 C7.35712846,15.2242755 6.79393152,15.1062648 6.44923941,15.4606822 C6.10524667,15.8136099 6.10524667,16.3874321 6.44923941,16.7411303 L8.3189943,18.6607109 C8.66296206,19.0143834 9.22103858,19.0143834 9.56503132,18.6607109 L13.3031174,14.8186218 C13.6478095,14.4649236 13.6478095,13.8918462 13.3031174,13.5374289 C12.9584253,13.1837307 12.4003488,13.1844755 12.0556566,13.5388928 L12.0556566,13.5388928 Z M18.3778595,20.8106885 C18.3771601,20.8106885 18.3771601,20.8114076 18.3771601,20.8114076 C18.3072226,20.9405645 18.235137,21.0682318 18.1602039,21.1929969 C16.8092606,23.4596497 14.6005335,25.1333983 11.9942865,25.7461037 C11.2863438,25.911935 10.5491523,26 9.79125425,26 C7.21070925,26 4.86280644,24.9800486 3.11364383,23.3136195 C2.94736735,23.1543885 2.78608641,22.9900211 2.63050038,22.8197724 C0.998383223,21.0330212 0,18.6357476 0,16.0000128 C0,15.2258678 0.0856235193,14.4729879 0.249052541,13.7502334 C1.24816012,9.3108227 5.14110786,6 9.79125425,6 C13.3366624,6 16.4424633,7.92471714 18.1602039,10.806284 C18.2358614,10.9332321 18.3086463,11.0616442 18.3792832,11.192265 C18.8153437,12.1865339 18.4535169,13.376734 17.5093603,13.9329381 C16.5544882,14.4957425 15.3484155,14.2088443 14.7296931,13.3018698 C14.6733185,13.1940037 14.613372,13.0876271 14.5498538,12.9841527 C13.5614616,11.3610241 11.8001599,10.2808988 9.79125425,10.2808988 C6.6990163,10.2808988 4.19195566,12.841795 4.19195566,16.0000128 C4.19195566,16.5496165 4.26761308,17.0808572 4.40963622,17.5835134 C4.42604656,17.6421977 4.44315628,17.7009077 4.46243906,17.7596177 C4.46313843,17.7618264 4.46386279,17.7647542 4.46458714,17.767682 C4.85066728,19.1398677 4.70936849,20.5443362 4.16198243,21.7499201 C5.3423531,21.1900434 6.71685037,21.0462219 8.06065006,21.4402672 C8.06349752,21.441012 8.06636995,21.4417311 8.06849306,21.4424759 C8.12559205,21.4615579 8.18339043,21.4798952 8.24121378,21.4967685 C8.73362395,21.6413348 9.25385926,21.7183821 9.79125425,21.7183821 C11.8008842,21.7183821 13.562161,20.6382568 14.5505781,19.0151282 C14.613372,18.9116538 14.6725941,18.8067154 14.7289688,18.6988493 C15.3477161,17.7911814 16.5544882,17.5042575 17.5086359,18.0670619 C18.4535169,18.6240107 18.8160431,19.8164195 18.3778595,20.8106885 Z M27.2522056,16.3927273 C27.2522056,12.3527273 29.9730612,9.27272727 34.2744137,9.27272727 C37.2953636,9.27272727 39.315999,10.6127273 40.1562632,12.7327273 C40.5163765,13.6127273 40.1162507,14.1727273 39.2759864,14.1727273 L38.215653,14.1727273 C37.5554454,14.1727273 37.2953636,13.8127273 37.0352819,13.3927273 C36.5551309,12.5127273 35.7748855,11.8927273 34.2744137,11.8927273 C31.9136714,11.8927273 30.4332059,13.7527273 30.4332059,16.3927273 C30.4332059,19.0127273 31.9136714,20.8927273 34.2544074,20.8927273 C35.7548792,20.8927273 36.5551309,20.2727273 37.0352819,19.3927273 C37.2953636,18.9727273 37.5554454,18.6127273 38.215653,18.6127273 L39.2759864,18.6127273 C40.1162507,18.6127273 40.5163765,19.1727273 40.1562632,20.0527273 C39.315999,22.1727273 37.2753574,23.5127273 34.2544074,23.5127273 C29.8130109,23.5127273 27.2522056,20.4527273 27.2522056,16.3927273 Z M41.996842,16.3927273 C41.996842,12.2927273 44.7777164,9.27272727 49.1590941,9.27272727 C53.4604466,9.27272727 56.3213462,12.2927273 56.3213462,16.3927273 C56.3213462,20.4927273 53.4604466,23.5127273 49.1590941,23.5127273 C44.7777164,23.5127273 41.996842,20.4927273 41.996842,16.3927273 Z M45.1778422,16.3927273 C45.1778422,19.0527273 46.7783455,20.8927273 49.1590941,20.8927273 C51.5398427,20.8927273 53.140346,18.9927273 53.140346,16.3927273 C53.140346,13.7927273 51.5398427,11.8927273 49.1590941,11.8927273 C46.7783455,11.8927273 45.1778422,13.7327273 45.1778422,16.3927273 Z M58.7421074,21.9927273 L58.7421074,10.7927273 C58.7421074,9.95272727 59.1822458,9.51272727 60.02251,9.51272727 L60.7227302,9.51272727 C61.5029756,9.51272727 61.7230448,9.75272727 62.4032587,10.6127273 L68.0450327,18.1327273 L68.1250578,18.1327273 L68.0450327,10.7927273 C68.0450327,9.95272727 68.4851711,9.51272727 69.3254353,9.51272727 L69.8856114,9.51272727 C70.7258756,9.51272727 71.166014,9.95272727 71.166014,10.7927273 L71.166014,21.9927273 C71.166014,22.8327273 70.7258756,23.2727273 69.8856114,23.2727273 L69.165385,23.2727273 C68.3851396,23.2727273 68.1650704,23.0327273 67.5048628,22.1727273 L61.8430825,14.6527273 L61.7630573,14.6527273 L61.8430825,21.9927273 C61.8630888,22.8327273 61.4229504,23.2727273 60.5826862,23.2727273 L60.02251,23.2727273 C59.1822458,23.2727273 58.7421074,22.8327273 58.7421074,21.9927273 Z M74.2469828,21.9927273 L74.2469828,10.7927273 C74.2469828,9.95272727 74.6871212,9.51272727 75.5273854,9.51272727 L83.26982,9.51272727 C83.9500339,9.51272727 84.3101471,9.87272727 84.3101471,10.5527273 L84.3101471,11.0127273 C84.3101471,11.6927273 83.9500339,12.0527273 83.26982,12.0527273 L77.3479579,12.0527273 L77.3479579,15.5127273 L81.9694111,15.5127273 C82.6296187,15.5127273 82.9497193,15.8527273 82.9497193,16.4927273 L82.9497193,16.9727273 C82.9497193,17.6127273 82.6296187,17.9527273 81.9694111,17.9527273 L77.3479579,17.9527273 L77.3479579,21.9927273 C77.3479579,22.8327273 76.9278258,23.2727273 76.0875616,23.2727273 L75.5273854,23.2727273 C74.6871212,23.2727273 74.2469828,22.8327273 74.2469828,21.9927273 Z M86.3707951,21.9927273 L86.3707951,10.7927273 C86.3707951,9.95272727 86.8109335,9.51272727 87.6511977,9.51272727 L88.2113738,9.51272727 C89.0516381,9.51272727 89.4717702,9.95272727 89.4717702,10.7927273 L89.4717702,20.6727273 L94.9334876,20.6727273 C95.6337077,20.6727273 95.9738147,21.0327273 95.9738147,21.7327273 L95.9738147,22.2327273 C95.9738147,22.9127273 95.6337077,23.2727273 94.9334876,23.2727273 L87.6511977,23.2727273 C86.8109335,23.2727273 86.3707951,22.8327273 86.3707951,21.9927273 Z M97.8143934,17.7127273 L97.8143934,10.7927273 C97.8143934,9.95272727 98.2545318,9.51272727 99.0947961,9.51272727 L99.6549722,9.51272727 C100.495236,9.51272727 100.935375,9.95272727 100.935375,10.7927273 L100.935375,17.6727273 C100.935375,19.7527273 101.955696,20.8927273 103.956325,20.8927273 C105.956954,20.8927273 106.977275,19.7527273 106.977275,17.6727273 L106.977275,10.7927273 C106.977275,9.95272727 107.397407,9.51272727 108.237671,9.51272727 L108.817853,9.51272727 C109.658118,9.51272727 110.07825,9.95272727 110.07825,10.7927273 L110.07825,17.7127273 C110.07825,22.0727273 107.537451,23.5127273 103.956325,23.5127273 C100.355192,23.5127273 97.8143934,22.0727273 97.8143934,17.7127273 Z M112.078879,21.8927273 L116.040124,16.3327273 L112.238929,10.8927273 C111.738772,10.1727273 111.958841,9.51272727 112.859124,9.51272727 L113.939464,9.51272727 C114.779728,9.51272727 114.979791,9.79272727 115.660005,10.7927273 L117.920716,14.0727273 L120.201433,10.7927273 C120.881647,9.79272727 121.08171,9.51272727 121.921974,9.51272727 L122.86227,9.51272727 C123.762553,9.51272727 123.982622,10.1727273 123.482465,10.8927273 L119.681269,16.1927273 L123.742546,21.8927273 C124.242704,22.6127273 124.002628,23.2727273 123.122351,23.2727273 L122.042012,23.2727273 C121.201747,23.2727273 120.961672,22.9527273 120.301464,21.9927273 L117.860697,18.4327273 L115.379917,21.9927273 C114.719709,22.9527273 114.479634,23.2727273 113.63937,23.2727273 L112.699074,23.2727273 C111.798791,23.2727273 111.558715,22.6127273 112.078879,21.8927273 Z" id="path-1"></path>
    </defs>
    <g id="Symbols" stroke="none" stroke-width="1" fill="none" fill-rule="evenodd">
        <g id="Elements/Header" transform="translate(-108.000000, -20.000000)">
            <g id="Header">
                <g id="Elements/Logo" transform="translate(108.000000, 14.000000)">
                    <rect id="Rectangle-2" x="0" y="0" width="124" height="32"></rect>
                    <mask id="mask-2" fill="white">
                        <use xlink:href="#path-1"></use>
                    </mask>
                    <use id="Combined-Shape" fill="#03B7F2" fill-rule="evenodd" xlink:href="#path-1"></use>
                    <g id="Mixin/Palette/Primary" mask="url(#mask-2)" fill-rule="evenodd" fill="#03CAFF">
                        <rect x="0" y="0" width="124" height="32"></rect>
                    </g>
                </g>
            </g>
        </g>
    </g>
</svg>