<?xml version="1.0" encoding="UTF-8"?>
<svg width="179px" height="76px" viewBox="0 0 179 76" version="1.1" xmlns="http://www.w3.org/2000/svg" xmlns:xlink="http://www.w3.org/1999/xlink">
    <!-- Generator: Sketch 46.2 (44496) - http://www.bohemiancoding.com/sketch -->
    <title>Shape</title>
    <desc>Created with Sketch.</desc>
    <defs></defs>
    <g id="Page-1" stroke="none" stroke-width="1" fill="none" fill-rule="evenodd">
        <g id="marvel-6" transform="translate(-1.000000, 0.000000)" fill-rule="nonzero" fill="#99A9C1">
            <path d="M153,49.2 C87.9,44.3 34.1,59.6 22,65.3 C15.3,68.3 14.8,72.1 15.8,74.2 C16.7,75.8 19.9,76.8 23.4,75 C49.2,61.3 101.5,50.4 153,53.5 C154.2,53.5 155.2,52.5 155.2,51.3 C155.2,50.2 154.2,49.2 153,49.2 L153,49.2 Z M169.1,30 C166.4,33 162.4,35.3 161.1,34.2 C159.9,33.1 161.1,29.5 161.1,29.5 C167.5,25.4 179.9,15 179.9,7 C179.9,-0.4 173.2,-2.7 166.1,4.2 C160.4,10.3 156.2,17.7 154,25.8 C150.3,29.4 144.5,34 139.2,34 C136.5,34 135.7,32.1 136.1,29.5 C140.6,29.4 153,26 153,15.7 C153,14 152.2,12.4 151,11.2 C149.7,10 148,9.5 146.3,9.6 C140.7,9.6 133.5,15.3 130,23.3 C129,23.1 128.1,22.8 127.2,22.4 C128.1,20.4 128.9,18.4 129.4,16.3 C130.2,12.1 128.4,9.5 124.9,9.8 C122.7,10 120,11.9 119.5,16.3 C119.3,18.5 119.7,20.8 120.7,22.8 C119.2,27.5 112.9,33.4 110.8,33.2 C108.7,33 111.1,24.6 113.2,18.4 C114.4,17.2 115.3,15.8 115.9,14.2 C116.5,13 116.1,11.5 114.9,10.8 C111.7,9.6 108.1,11.1 106.7,14.2 C105.8,15.7 105.1,17.3 104.5,18.9 C102.8,21 100,23.6 99.2,23.4 C98,22.6 101.9,17.5 101.4,14.7 C101,12.3 98.9,10.7 96.5,10.9 C93,11.4 88.3,18 88.3,18 C88.8,16.8 89.2,15.5 89.3,14.2 C89.1,11.7 84.4,10.6 82.1,15.1 C80.5,19.4 79.3,23.9 78.6,28.5 C77.6,30.6 73.7,36.7 70.6,36.9 C68.1,37.1 71.2,26.1 71.6,25.5 C73,23.4 74.7,19 74.3,17.1 C74.3,16.2 73.9,15.3 73.2,14.7 C72.5,14.1 71.5,14 70.6,14.2 C69,14.6 67.7,15.6 66.9,17 C65.8,15.6 64,15 62.2,15.3 C51.9,16.4 45.3,34.1 46,42.4 C46.6,46.9 48.7,49.6 52.7,49.1 C57.2,48.5 60.9,42.1 60.9,42.1 C60.9,42.1 61.9,47.4 66.7,46.8 C70.3,45.7 73.5,43.5 75.8,40.5 C75.7,40.8 75.6,41.1 75.6,41.4 C74.8,45.9 82.3,45.4 83,42 C85.2,25.1 91,18.1 92.7,18.1 C94.1,18.1 89,26.1 91.9,29.1 C94.1,31.8 98.1,29.7 101.4,26.9 C100.8,29 100.5,31.2 100.4,33.4 C100.2,38.1 101.9,41.9 106.6,41.8 C112.8,41.6 119.4,34 123.7,26.8 C124.8,27.5 126.1,28 127.4,28.3 C127,30 126.8,31.7 126.9,33.5 C127.3,39 131.2,41.1 135.7,40.9 C141,40.7 147.2,36.7 151.4,33.1 C151.4,33.3 151.3,33.5 151.2,33.7 C150.8,36.4 151.4,41.3 155.3,41.5 C159.8,41.9 167.5,37.3 171.4,32.6 C174.7,30.5 171.5,27.5 169.1,30 L169.1,30 Z M173.3,7.1 C173.8,7.1 174.1,7.6 174.1,8 C174.1,12.7 162,22.8 162,22.8 C162,22.8 169.9,7.1 173.3,7.1 L173.3,7.1 Z M144.2,17 C144.6,17 145,17.1 145.3,17.4 C145.6,17.7 145.7,18.1 145.6,18.5 C145.6,21.2 141.9,23.2 137.8,23.2 C140,20.1 142.5,17 144.2,17 Z M63.7,24.4 C63.3,27.2 58.3,40 55.5,40 C52,40.2 57.2,22 62.9,22.1 C64,22.1 64,22.9 63.7,24.4 L63.7,24.4 Z M19.9,27.8 C23.2,27.8 17.2,44.7 18,52.1 C18.8,59.5 27.1,57.4 26.5,53 C25.5,45.8 30.6,22.8 35.6,22.8 C39.3,22.8 31.5,38.6 33.1,48.4 C34.1,54.9 43,52.9 42,48.8 C39.3,35.9 48.4,23.4 47.2,14.3 C46.6,10.5 44.5,8.4 41.9,8.4 C33.5,8.4 26.7,25.1 26.7,25.1 C26.7,25.1 27.5,15.6 20.7,15.2 C10.9,14.7 0.8,39 1,61 C1.2,68 10.1,66.9 9.5,61.2 C9,51.4 14.8,27.8 19.9,27.8 L19.9,27.8 Z" id="Shape"></path>
        </g>
    </g>
</svg>