<?xml version="1.0" encoding="UTF-8"?>
<svg width="94px" height="50px" viewBox="0 0 94 50" version="1.1" xmlns="http://www.w3.org/2000/svg" xmlns:xlink="http://www.w3.org/1999/xlink">
    <!-- Generator: Sketch 46.2 (44496) - http://www.bohemiancoding.com/sketch -->
    <title>N26_logo</title>
    <desc>Created with Sketch.</desc>
    <defs></defs>
    <g id="Page-1" stroke="none" stroke-width="1" fill="none" fill-rule="evenodd">
        <g id="N26_logo" fill-rule="nonzero" fill="#99A9C1">
            <path d="M4.04,15.4 L21.98,41.89 L25.27,41.89 L25.27,7.37 L21.28,7.37 L21.28,33.62 L3.91,8.02 L3.47,7.37 L1.59,7.37 L1.56,7.33 L1.56,7.37 L0.05,7.37 L0.05,41.89 L4.04,41.89 L4.04,15.4 Z M51.55,28.08 C57.62,24.4 60,21.24 60,16.79 C60,10.68 55.87,6.73 49.5,6.73 C44.6785479,6.73014822 40.314141,9.58349696 38.38,14 L37.78,15.34 L41.39,17 L42,15.71 C43.2641365,12.6933772 46.2092451,10.7247217 49.48,10.71 C53.48,10.71 55.93,12.99 55.93,16.82 C55.93,19.28 54.86,21.46 49.56,24.72 C40.1,30.52 38.01,33.11 37.76,39.32 L37.76,41.92 L59.89,41.92 L59.89,37.92 L41.89,37.92 C42.25,34.74 43.65,32.89 51.55,28.08 Z M82.5,19.44 C79.5106501,19.5402103 76.6311502,20.5911226 74.28,22.44 C74.9,15 78.18,10.64 83.28,10.64 C85.5455801,10.5916852 87.7345734,11.4607913 89.35,13.05 L90.49,14.05 L93.08,11 L91.94,10 C89.5727755,7.84193312 86.4729733,6.66565293 83.27,6.71 C75.2,6.71 70.19,13.78 70.19,25.16 C70.19,37.95 76.53,42.51 82.46,42.51 C90,42.53 94,36.55 94,30.64 C94,22.37 87.81,19.44 82.5,19.44 Z M90,30.64 C90,34.59 87.42,38.58 82.49,38.58 C79.14,38.58 75.02,35.73 74.29,27.73 C75.74,25.99 78.87,23.38 82.53,23.38 C89.24,23.39 90,28.46 90,30.64 L90,30.64 Z M0,46.39 L25.32,46.39 L25.32,49.36 L0,49.36 L0,46.39 Z M0.09,0 L25.32,0 L25.32,2.97 L0.09,2.97 L0.09,0 Z" id="Shape"></path>
        </g>
    </g>
</svg>