<?xml version="1.0" encoding="UTF-8"?>
<svg width="98px" height="98px" viewBox="0 0 98 98" version="1.1" xmlns="http://www.w3.org/2000/svg" xmlns:xlink="http://www.w3.org/1999/xlink">
    <!-- Generator: Sketch 46.2 (44496) - http://www.bohemiancoding.com/sketch -->
    <title>organise-feedback</title>
    <desc>Created with Sketch.</desc>
    <defs>
        <polygon id="path-1" points="76.1718023 0.895835906 76.1718023 53.7551908 1.64200803e-05 53.7551908 1.64200803e-05 0.895835906 76.1718023 0.895835906"></polygon>
    </defs>
    <g id="Components" stroke="none" stroke-width="1" fill="none" fill-rule="evenodd">
        <g id="Homepage" transform="translate(-914.000000, -1877.000000)">
            <g id="Feedback-Management" transform="translate(0.000000, 1272.000000)">
                <g id="Illustration" transform="translate(128.000000, 231.000000)">
                    <g id="Group-38">
                        <g id="Group-8" transform="translate(666.000000, 374.000000)">
                            <g id="Group-3">
                                <g id="Group-30">
                                    <g id="Group-25" transform="translate(120.000000, 0.000000)">
                                        <g id="organise-feedback">
                                            <circle id="Oval" fill-opacity="0.5" fill="#FCF0CD" cx="49" cy="49" r="49"></circle>
                                            <g id="Page-1" transform="translate(11.000000, 18.000000)">
                                                <path d="M75.1971256,29.2635507 L68.6691372,54.6161594 C67.7764744,58.0854638 64.0330209,60.569058 59.6977419,60.569058 L16.2384047,60.569058 C11.9031256,60.569058 8.16056744,58.0854638 7.2670093,54.6161594 L0.739916279,29.2635507 C0.174055814,27.0674928 0.841090698,24.7806812 2.55657907,23.0294058 L13.5550442,11.8056087 C15.294707,10.0291739 17.9270326,8.99584058 20.7088814,8.99584058 L55.2272651,8.99584058 C58.0100093,8.99584058 60.6414395,10.0291739 62.3819977,11.8056087 L73.3804628,23.0294058 C75.0959512,24.7806812 75.7620907,27.0674928 75.1971256,29.2635507" id="Fill-1" fill="#F5F6FB"></path>
                                                <g id="Group-5" transform="translate(0.000000, 7.194426)">
                                                    <mask id="mask-2" fill="white">
                                                        <use xlink:href="#path-1"></use>
                                                    </mask>
                                                    <g id="Clip-4"></g>
                                                    <path d="M74.4003547,21.8625478 C74.4003547,21.8625478 74.4549709,21.688229 74.5158547,21.3404899 C74.5740523,20.9927507 74.6555291,20.4760841 74.6394128,19.7743159 C74.6170291,19.0815333 74.4934709,18.1677072 73.9607384,17.2251275 C73.4700872,16.2978232 72.4090988,15.4343159 71.4036221,14.3830116 C69.3246221,12.318142 66.7066221,9.90193913 63.7439128,7.09217101 C63.0159942,6.39848986 62.2639012,5.68144638 61.4903198,4.94373623 C60.7588198,4.30486667 59.884064,3.77472174 58.9126105,3.39553333 C57.9501105,3.01544638 56.8613663,2.77373623 55.7932151,2.71892464 C54.6543314,2.68657681 53.382936,2.71083768 52.1428779,2.70454783 C47.1289244,2.72431594 41.696843,2.65602609 35.9513895,2.62008406 C33.0791105,2.59582319 30.1280407,2.57066377 27.1116105,2.5446058 C25.603843,2.53202609 24.079064,2.51854783 22.5399593,2.50596812 C21.7842849,2.50417101 20.9677267,2.48170725 20.2505523,2.49698261 C19.520843,2.52124348 18.7911337,2.62547536 18.078436,2.80518551 C16.6548314,3.15651884 15.2876337,3.8555913 14.2221686,4.85208406 C13.1029826,5.97976522 11.9766337,7.11463478 10.8440174,8.2575913 C8.57251744,10.5560841 6.27415698,12.8824319 3.95699419,15.2267507 C3.38397093,15.8287797 2.75901744,16.3777942 2.32208721,16.9798232 C1.86277326,17.5899391 1.51448256,18.2800261 1.30586628,19.0096493 C1.0990407,19.7374754 1.03905233,20.5120261 1.13575,21.2578232 C1.24319186,22.0027217 1.50194767,22.8248957 1.69176163,23.6344899 C2.51100581,26.8728667 3.3338314,30.1247217 4.15665698,33.3765768 C4.97948256,36.6275333 5.80230814,39.8793884 6.62155233,43.1177652 L7.23486628,45.5447507 C7.44706395,46.3345768 7.62702907,47.2034754 7.86787791,47.9133304 C8.40777326,49.3770696 9.51084302,50.5982 10.8305872,51.4473304 C12.149436,52.3036493 13.7154012,52.7906638 15.2589826,52.9389246 C16.053157,53.0108087 16.8544942,52.9919391 17.672843,53.0000261 C18.4831337,53.0036203 19.2925291,53.0072145 20.098343,53.0117072 C23.3233895,53.0269826 26.509936,53.0431565 29.643657,53.0584319 C35.9110988,53.0808957 41.9699244,53.104258 47.7153779,53.1249246 C50.587657,53.1177362 53.3820407,53.1114464 56.0850988,53.104258 C57.4325988,53.0934754 58.7747267,53.1132435 60.0595523,53.0773014 C61.329157,53.0224899 62.5647384,52.7529246 63.6794477,52.2704029 C65.9151337,51.3430986 67.6941919,49.5495913 68.2260291,47.4299101 C68.7533895,45.2059971 69.2538895,43.0962 69.7239477,41.1139971 C70.6712267,37.1370116 71.4967384,33.6695043 72.1763081,30.8139101 C73.5918547,25.1179971 74.4003547,21.8625478 74.4003547,21.8625478 M75.9940756,22.2758812 C75.9940756,22.2758812 75.130064,25.5169536 73.6178198,31.1877072 C72.8343895,34.0163449 71.8835291,37.4515043 70.7920988,41.3907507 C70.2378779,43.3657652 69.6487384,45.4674754 69.0282616,47.6833014 C68.3298895,50.0213304 66.3323663,51.9586058 63.926564,52.8778232 C62.7267965,53.3648377 61.4142151,53.6173304 60.0783547,53.6451855 C58.7711453,53.6451855 57.4397616,53.6451855 56.0850988,53.6451855 C53.3820407,53.6379971 50.587657,53.6308087 47.7153779,53.6236203 C41.9699244,53.6451855 35.9110988,53.6676493 29.643657,53.6910116 C26.509936,53.706287 23.3233895,53.7224609 20.098343,53.7377362 C19.2925291,53.7413304 18.4831337,53.7458232 17.672843,53.7494174 C16.8697151,53.7503159 16.0406221,53.7763739 15.2106337,53.7098812 C13.5130523,53.5616203 11.8548663,53.0575333 10.396343,52.1347217 C8.9494593,51.2208957 7.70044767,49.8793594 7.06922674,48.2125478 C6.77197093,47.348142 6.61707558,46.5816783 6.38965698,45.7639971 L5.75575,43.3424029 C4.90875,40.1112145 4.05906395,36.8665478 3.20937791,33.6218812 C2.35879651,30.3772145 1.50911047,27.1334464 0.662110465,23.9013594 C0.46602907,23.0872725 0.204587209,22.3145188 0.0622267442,21.4096783 C-0.063122093,20.5030406 0.00313372093,19.5847217 0.241296512,18.7113304 C0.482145349,17.8397362 0.88952907,17.0220551 1.41868023,16.3059101 C1.67564535,15.948287 1.98543605,15.6050406 2.27731977,15.3076203 L3.1395407,14.4198522 C5.43700581,12.0557652 7.7156686,9.71054783 9.96747093,7.39318551 C11.1000872,6.23225797 12.2246453,5.07851884 13.342936,3.93286667 C14.6000058,2.73869275 16.1400058,1.95605507 17.7435756,1.52025797 C18.5467035,1.30370725 19.3686337,1.17162029 20.1914593,1.12938841 C21.0268198,1.09883768 21.7574244,1.10962029 22.5399593,1.09793913 C24.079064,1.08446087 25.603843,1.07188116 27.1116105,1.0584029 C30.1280407,1.03324348 33.0791105,1.00808406 35.9513895,0.982924638 C41.696843,0.947881159 47.1289244,0.879591304 52.1428779,0.89935942 C53.4097965,0.908344928 54.594343,0.883185507 55.8532035,0.919127536 C57.1827965,0.988315942 58.4094244,1.26866377 59.5733779,1.72512754 C60.7265872,2.19147536 61.7741453,2.85550435 62.6471105,3.67498261 C63.4681453,4.51512754 64.1315988,5.24744638 64.8308663,6.01930145 C67.5804826,9.03933043 69.9442035,11.706229 71.9659012,13.8277072 C72.9642151,14.9068667 73.918657,15.7613884 74.6617965,16.7650696 C75.3852384,17.730113 75.8355988,18.7212145 76.0263081,19.580229 C76.2188081,20.440142 76.1874709,21.1392145 76.1194244,21.590287 C76.0558547,22.0458522 75.9940756,22.2758812 75.9940756,22.2758812" id="Fill-3" fill="#42457B" mask="url(#mask-2)"></path>
                                                </g>
                                                <path d="M58.2322349,0.445142029 L17.7141186,0.445142029 C16.3272233,0.445142029 15.2026651,1.57372174 15.2026651,2.96557681 L15.2026651,19.0478377 C15.2026651,20.4396928 16.3272233,21.5673739 17.7141186,21.5673739 L58.2322349,21.5673739 C59.6191302,21.5673739 60.7436884,20.4396928 60.7436884,19.0478377 L60.7436884,2.96557681 C60.7436884,1.57372174 59.6191302,0.445142029 58.2322349,0.445142029" id="Fill-6" fill="#F5F6FB"></path>
                                                <path d="M58.2322349,0.0735913043 C58.2134326,0.108634783 58.8598744,-0.0360318841 59.8062581,0.536344928 C60.2557233,0.829272464 60.758014,1.33695362 60.9979674,2.10072174 C61.0525837,2.28312754 61.1009326,2.50327246 61.1197349,2.71892464 C61.1233163,2.81776522 61.127793,2.91750435 61.1322698,3.01993913 C61.1331651,3.11518551 61.1331651,3.21222899 61.1340605,3.31017101 C61.1358512,3.70373623 61.1376419,4.12246087 61.1394326,4.56454783 C61.1627116,8.10843188 61.1940488,13.1708667 61.2325488,19.2468667 C61.1931535,20.1562 60.6908628,21.0529536 59.9029558,21.5839971 C59.4982581,21.848171 59.0720721,22.0197942 58.5420256,22.0826928 C58.0773395,22.1195333 57.7200953,22.1006638 57.2992814,22.1132435 C55.6706419,22.132113 53.987386,22.1518812 52.2575721,22.1725478 C48.7970488,22.2129826 45.147607,22.256113 41.3719209,22.3010406 C37.5971302,22.3414754 33.6960953,22.3828087 29.732386,22.4250406 C25.7677814,22.4385188 21.7413977,22.4528957 17.7141186,22.4663739 C16.3361767,22.4807507 15.0227,21.5588377 14.5535372,20.2712145 C14.4908628,20.112171 14.4460953,19.9477362 14.4084907,19.7815043 C14.3762581,19.6269536 14.3404442,19.3609826 14.3422349,19.262142 C14.3261186,18.9224899 14.3440256,18.7337942 14.3431302,18.4624319 L14.3646186,16.9510696 C14.4120721,14.9383159 14.4586302,12.9336493 14.5051884,10.944258 C14.5562233,8.95576522 14.6063628,6.98254783 14.6565023,5.03269275 C14.6636651,4.54567826 14.6717233,4.05956232 14.678886,3.57524348 C14.6851535,3.32275072 14.6797814,3.11428696 14.696793,2.82675072 C14.7084326,2.53651884 14.7728977,2.24988116 14.8687,1.97851884 C15.2608628,0.879591304 16.272607,0.0906637681 17.4374558,-8.98550725e-05 C24.9959907,0.032257971 32.0513395,0.0628086957 38.0976302,0.0888666667 C50.1785721,0.0798811594 58.2322349,0.0735913043 58.2322349,0.0735913043 M58.2322349,0.816692754 C58.2322349,0.816692754 50.1785721,0.810402899 38.0976302,0.801417391 C32.0647698,0.834663768 25.0255372,0.8742 17.484014,0.916431884 C16.7587814,0.9982 16.0353395,1.56967826 15.8168744,2.30738841 C15.7595721,2.4897942 15.7210721,2.68028696 15.7210721,2.87347536 C15.7139093,3.06756232 15.7255488,3.34341739 15.7273395,3.57524348 C15.7345023,4.05956232 15.7425605,4.54567826 15.7497233,5.03269275 C15.7998628,6.98254783 15.8500023,8.95576522 15.9001419,10.944258 C15.9467,12.9336493 15.9941535,14.9383159 16.0407116,16.9510696 L16.0622,18.4624319 C16.0693628,18.694258 16.0622,19.0105478 16.0810023,19.1740841 C16.0890605,19.3277362 16.1060721,19.3115623 16.118607,19.4032145 C16.1392,19.482287 16.159793,19.5613594 16.1929209,19.6368377 C16.4275023,20.2523449 17.060514,20.6863449 17.7141186,20.6692725 C21.7413977,20.6827507 25.7677814,20.6971275 29.732386,20.7106058 C33.6960953,20.7528377 37.5971302,20.794171 41.3719209,20.8346058 C45.147607,20.8786348 48.7970488,20.9217652 52.2575721,20.9630986 C53.987386,20.9837652 55.6706419,21.0035333 57.2992814,21.0224029 C57.6905488,21.0206058 58.1427,21.0475623 58.4757698,21.0215043 C58.740793,20.9918522 59.0774442,20.8813304 59.3299326,20.7150986 C59.8537116,20.3736493 60.201107,19.7886928 60.2378163,19.1812725 C60.2664674,16.162142 60.2933279,13.3946058 60.3175023,10.9424609 C60.3291419,8.47953333 60.3389907,6.33289565 60.3470488,4.56454783 C60.3497349,4.12246087 60.3515256,3.70373623 60.3533163,3.31017101 C60.3533163,3.21222899 60.3542116,3.11518551 60.3542116,3.01993913 L60.3452581,2.75846087 C60.3300372,2.6066058 60.3031767,2.47811304 60.262886,2.33075072 C60.0927698,1.76915652 59.723886,1.39086667 59.3943977,1.17072174 C58.7005023,0.741214493 58.2179093,0.843649275 58.2322349,0.816692754" id="Fill-8" fill="#42457B"></path>
                                                <path d="M62.5293721,4.3231971 L13.4176977,4.3231971 C12.029907,4.3231971 10.9062442,5.45177681 10.9062442,6.84363188 L10.9062442,22.9258928 C10.9062442,24.3177478 12.029907,25.445429 13.4176977,25.445429 L62.5293721,25.445429 C63.9162674,25.445429 65.0408256,24.3177478 65.0408256,22.9258928 L65.0408256,6.84363188 C65.0408256,5.45177681 63.9162674,4.3231971 62.5293721,4.3231971" id="Fill-10" fill="#F5F6FB"></path>
                                                <path d="M62.5292826,3.86367826 C62.5292826,3.86367826 62.6985035,3.85109855 63.0226198,3.90141739 C63.3404686,3.95443188 63.8347012,4.07304058 64.3468407,4.46121449 C64.8527128,4.84309855 65.381864,5.48735942 65.5233291,6.46048986 C65.5475035,6.60066377 65.5421314,6.67075072 65.5519802,6.78037391 C65.5537709,6.88909855 65.556457,7.00051884 65.559143,7.11373623 C65.5618291,7.32309855 65.5654105,7.53964928 65.5680965,7.76248986 C65.574364,8.20817101 65.5815267,8.6826058 65.5886895,9.1839971 C65.6397244,11.1877652 65.7015035,13.6210406 65.772236,16.4119391 C65.8044686,17.8073884 65.8384919,19.2926928 65.8743058,20.8579681 C65.8787826,21.2497362 65.882364,21.6459971 65.8868407,22.0467507 L65.8931081,22.6523739 L65.8940035,22.9695623 C65.8868407,23.1052435 65.8904221,23.2427217 65.8662477,23.3793014 C65.7364221,24.4773304 65.0156663,25.5232435 63.96005,26.0138522 C63.45955,26.276229 62.7656547,26.3624899 62.3242477,26.3436203 C61.8882128,26.3436203 61.4468058,26.3427217 61.0018174,26.3418232 C60.1118407,26.3400261 59.203957,26.338229 58.2817477,26.3373304 C56.4364337,26.3337362 54.5293407,26.3310406 52.5676314,26.3274464 C48.6460035,26.3040841 44.5094919,26.2789246 40.2306198,26.2528667 C31.6728756,26.1755913 22.5456895,26.0938232 13.4176081,26.0111565 C12.0011663,26.0273304 10.6885849,24.9445768 10.427143,23.558113 C10.3107477,22.8293884 10.3895384,22.3172145 10.370736,21.7340551 L10.3805849,20.0214174 C10.3931198,17.7408957 10.4056547,15.4684609 10.4181895,13.2139971 C10.424457,12.0863159 10.4307244,10.9640261 10.4369919,9.84712754 L10.4459453,8.17582319 L10.4504221,7.34286667 C10.4548988,7.06970725 10.4405733,6.79834493 10.4826547,6.4559971 C10.6456081,5.14411304 11.733457,4.06046087 13.0433523,3.9157942 C14.2108872,3.86727246 15.2306895,3.90501159 16.3185384,3.89602609 C24.8762826,3.9086058 32.8627942,3.92028696 39.7095267,3.93017101 C53.4012012,3.89063478 62.5292826,3.86367826 62.5292826,3.86367826 M62.5292826,4.78289565 C62.5292826,4.78289565 53.4012012,4.75593913 39.7095267,4.7164029 C32.8627942,4.72628696 24.8762826,4.73796812 16.3185384,4.75054783 C15.2682942,4.76312754 14.1276198,4.73077971 13.1266198,4.7802 C12.257236,4.88533043 11.4657477,5.66437391 11.3771081,6.5728087 C11.351143,6.77857681 11.3609919,7.06341739 11.3609919,7.34286667 L11.366364,8.17582319 L11.3753174,9.84712754 C11.3815849,10.9640261 11.3878523,12.0863159 11.3941198,13.2139971 C11.4066547,15.4684609 11.4191895,17.7408957 11.4317244,20.0214174 L11.4406779,21.7340551 C11.4576895,22.2911565 11.4138174,22.9318232 11.4926081,23.3334754 C11.6725733,24.2203449 12.521364,24.9014464 13.4176081,24.8798812 C22.5456895,24.798113 31.6728756,24.7154464 40.2306198,24.6390696 C44.5094919,24.6130116 48.6460035,24.5878522 52.5676314,24.5644899 C54.5293407,24.5608957 56.4364337,24.5573014 58.2817477,24.5546058 C59.203957,24.5528087 60.1118407,24.5510116 61.0018174,24.550113 C61.4468058,24.5492145 61.8882128,24.5483159 62.3242477,24.5474174 C62.7531198,24.5492145 62.941143,24.5267507 63.2133291,24.4045478 C63.7254686,24.1844029 64.0898756,23.6803159 64.1641895,23.1492725 C64.1812012,23.0836783 64.1749337,23.0144899 64.1838872,22.9470986 L64.188364,22.6523739 L64.1946314,22.0467507 C64.1982128,21.6459971 64.2026895,21.2497362 64.2062709,20.8579681 C64.2429802,19.2926928 64.2770035,17.8073884 64.309236,16.4119391 C64.3799686,13.6210406 64.4417477,11.1877652 64.4927826,9.1839971 C64.4999453,8.6826058 64.5071081,8.20817101 64.5133756,7.76248986 C64.5160616,7.53964928 64.519643,7.32309855 64.5223291,7.11373623 C64.5232244,7.01848986 64.5250151,6.92414203 64.5259105,6.83248986 C64.519643,6.74083768 64.5241198,6.61054783 64.5088988,6.55933043 C64.4417477,5.97347536 64.0970384,5.48376522 63.7612826,5.22767826 C63.0530616,4.69753333 62.5095849,4.81344638 62.5292826,4.78289565" id="Fill-12" fill="#42457B"></path>
                                                <path d="M67.8216895,8.20116232 L8.12520116,8.20116232 C6.73830581,8.20116232 5.61374767,9.32974203 5.61374767,10.7215971 L5.61374767,26.803858 C5.61374767,28.195713 6.73830581,29.3233942 8.12520116,29.3233942 L67.8216895,29.3233942 C69.2085849,29.3233942 70.333143,28.195713 70.333143,26.803858 L70.333143,10.7215971 C70.333143,9.32974203 69.2085849,8.20116232 67.8216895,8.20116232" id="Fill-14" fill="#FFFFFF"></path>
                                                <path d="M67.8216895,7.91084058 C67.8216895,7.91084058 67.8673523,7.91263768 67.9568872,7.91623188 C68.0464221,7.91623188 68.1798291,7.92881159 68.3544221,7.95846377 C68.6964453,8.02046377 69.2247012,8.184 69.737736,8.64944928 C69.9902244,8.88127536 70.2337593,9.18947826 70.410143,9.57765217 C70.5945849,9.95414493 70.6715849,10.4636232 70.6626314,10.912 C70.6715849,11.8033623 70.6814337,12.8277101 70.6930733,13.9742609 C70.7217244,16.2691594 70.7557477,19.0546667 70.795143,22.2508116 C70.8058872,23.0496232 70.8175267,23.8735942 70.8291663,24.7227246 C70.8345384,25.1468406 70.8408058,25.5781449 70.8470733,26.013942 L70.8560267,26.6734783 C70.8631895,26.8864348 70.8470733,27.1946377 70.795143,27.4498261 C70.5883174,28.5208986 69.7413174,29.4778551 68.6221314,29.7851594 C67.9756895,29.9585797 67.54055,29.8884928 67.060643,29.9127536 C66.580736,29.9190435 66.0963523,29.9253333 65.6057012,29.9316232 C57.7678174,30.052029 48.6227244,30.1355942 38.8249221,30.2128696 C33.9264686,30.211971 28.8641663,30.2110725 23.7194919,30.2101739 C18.5757128,30.1616522 13.350457,30.1122319 8.12520116,30.0628116 C7.28088721,30.0547246 6.44642209,29.6944058 5.86444535,29.0941739 C5.27709651,28.511913 4.9377593,27.6376232 4.94939884,26.8630725 C4.9798407,25.5422029 5.01028256,24.2222319 5.04072442,22.9049565 C5.10608488,20.2928696 5.17144535,17.6915652 5.23591047,15.110029 C5.25560814,13.8197101 5.27441047,12.5347826 5.29410814,11.2552464 C5.30485233,10.9434493 5.2842593,10.6163768 5.34603837,10.247971 C5.40602674,9.89484058 5.53406163,9.5533913 5.72029419,9.24968116 C6.09186395,8.64046377 6.69801512,8.18489855 7.38116628,8.0015942 C7.72856163,7.90095652 8.1001314,7.89466667 8.39649186,7.90095652 L9.33660814,7.90455072 C9.96335233,7.90634783 10.5874105,7.90814493 11.2096779,7.90994203 C12.4533174,7.91353623 13.6880035,7.91713043 14.9128407,7.92162319 C24.710643,7.91892754 33.855736,7.91802899 41.6936198,7.91623188 C57.3702826,7.91263768 67.8216895,7.91084058 67.8216895,7.91084058 M67.8216895,8.49130435 C67.8216895,8.49130435 57.3702826,8.48950725 41.6936198,8.48591304 C33.855736,8.48501449 24.710643,8.48321739 14.9128407,8.48142029 C13.6880035,8.48501449 12.4533174,8.4886087 11.2096779,8.4922029 C10.5874105,8.494 9.96335233,8.4957971 9.33660814,8.49849275 C8.72956163,8.52275362 8.02850349,8.44188406 7.54053837,8.58475362 C7.00601512,8.73211594 6.53237558,9.09243478 6.2449686,9.57136232 C6.10081744,9.80947826 6.00232907,10.0754493 5.95756163,10.3513043 C5.90831744,10.6127826 5.93159651,10.9290725 5.93338721,11.2552464 C5.95218953,12.5347826 5.97188721,13.8197101 5.99158488,15.110029 C6.05605,17.6915652 6.12051512,20.2928696 6.18587558,22.9049565 C6.21721279,24.1997681 6.24855,25.4972754 6.27988721,26.7956812 C6.28794535,27.8335072 7.18687558,28.6224348 8.12520116,28.5846957 C13.350457,28.5352754 18.5757128,28.4858551 23.7194919,28.4364348 C28.8641663,28.4364348 33.9264686,28.4355362 38.8249221,28.4346377 C48.6227244,28.5110145 57.7678174,28.5954783 65.6057012,28.7158841 C66.0963523,28.7221739 66.580736,28.7284638 67.060643,28.7347536 C67.5342826,28.7356522 68.0643291,28.7751884 68.3275616,28.6844348 C69.0339919,28.5128116 69.6034337,27.9143768 69.755643,27.2242899 C69.8335384,26.916087 69.8039919,26.4551304 69.8192128,26.013942 C69.8254802,25.5781449 69.8308523,25.1468406 69.8371198,24.7227246 C69.8487593,23.8735942 69.8595035,23.0496232 69.8702477,22.2508116 C69.9105384,19.0546667 69.9445616,16.2691594 69.9732128,13.9742609 C69.983957,12.8277101 69.9947012,11.8033623 70.0027593,10.912 C70.0537942,10.0691594 69.7117709,9.4806087 69.3187128,9.10231884 C68.9247593,8.72942029 68.5120035,8.59194203 68.2425035,8.53802899 C67.9685267,8.48321739 67.8216895,8.49130435 67.8216895,8.49130435" id="Fill-16" fill="#42457B"></path>
                                                <path d="M75.1973942,29.265258 L68.6703012,54.6160696 C67.7749523,58.087171 64.0323942,60.5698667 59.6989058,60.5698667 L16.2386733,60.5698667 C11.9051849,60.5698667 8.16262674,58.087171 7.26727791,54.6160696 L0.740184884,29.265258 C0.594243023,28.6901855 0.530673256,28.1097217 0.548580233,27.5355478 C0.570963953,26.8005333 1.28187093,26.2047942 2.18080116,26.2047942 L73.6251616,26.2047942 C74.5984058,26.2047942 75.3845221,26.8499536 75.3925802,27.6469681 C75.3988477,28.1843014 75.3334872,28.7270261 75.1973942,29.265258" id="Fill-18" fill="#D2D4DF"></path>
                                                <path d="M74.6715558,29.1300261 C74.6715558,29.1300261 74.7208,28.9593014 74.777207,28.6196493 C74.8049628,28.4498232 74.8318233,28.2368667 74.8443581,27.9834754 C74.8497302,27.8747507 74.8559977,27.6869536 74.8470442,27.6051855 C74.8398814,27.5171275 74.815707,27.4245768 74.7655674,27.3284319 C74.6688698,27.1379391 74.4495093,26.9375623 74.1415093,26.8288377 C73.855893,26.7048377 73.4198581,26.7470696 72.870114,26.7452725 C71.8171837,26.7524609 70.6057767,26.7605478 69.2502186,26.7704319 C66.538207,26.7785188 63.2442186,26.7884029 59.4667419,26.8000841 C55.6883698,26.7650406 51.4265093,26.7255043 46.7769628,26.6823739 C42.1274163,26.6383449 37.0901837,26.5907217 31.7628581,26.5404029 C26.4346372,26.4793014 20.8163233,26.4694174 15.004614,26.454142 C12.0983116,26.4649246 9.14455581,26.4766058 6.15319535,26.4873884 C5.40557907,26.4900841 4.65617209,26.4927797 3.90407907,26.4963739 L2.77414884,26.4999681 L2.20828837,26.5026638 C2.03906744,26.5044609 1.88417209,26.5233304 1.73017209,26.568258 C1.42664884,26.6545188 1.15267209,26.8405188 0.997776744,27.0885188 C0.918090698,27.2188087 0.875113953,27.3365188 0.859893023,27.4847797 C0.846462791,27.6366348 0.851834884,27.8379101 0.860788372,28.012229 C0.884067442,28.7319681 1.11327674,29.4364319 1.3048814,30.1912145 C2.87532326,36.1099681 4.46993953,42.122171 6.06455581,48.1343739 L7.26074186,52.6424029 C7.4648814,53.3765188 7.64663721,54.1807217 7.86868372,54.8564319 C8.09699767,55.5339391 8.44618372,56.170113 8.8840093,56.7397942 C9.78204419,57.8656783 10.9988233,58.7444609 12.3508,59.2826928 C13.025893,59.5549536 13.7287419,59.7652145 14.4486023,59.8775333 C14.812114,59.9539101 15.1523465,59.9673884 15.5167535,60.0078232 L16.0888814,60.0275913 L16.642207,60.0365768 C22.7449047,60.0877942 28.7509047,60.1390116 34.562614,60.1875333 C40.3752186,60.2306638 45.9935326,60.2728957 51.3208581,60.3133304 C53.9845209,60.3214174 56.5756605,60.3295043 59.0826372,60.3375913 C61.5591721,60.4283449 63.9524395,59.7571275 65.7619395,58.3751565 C66.671614,57.702142 67.3932651,56.8332435 67.8937651,55.8870696 C68.3915791,54.9813304 68.5455791,53.840171 68.827614,52.8275043 C69.3379628,50.7635333 69.8223465,48.8064899 70.2771837,46.966258 C71.1841721,43.2857942 71.9747651,40.0770696 72.6256837,37.4344319 C73.9275209,32.1491565 74.6715558,29.1300261 74.6715558,29.1300261 M75.7226953,29.4004899 C75.7226953,29.4004899 74.915986,32.4052435 73.5040209,37.6617652 C72.7975907,40.2900261 71.9407419,43.4816783 70.9567535,47.1423739 C70.4669977,48.9736203 69.9459047,50.9216783 69.3961605,52.9757652 C69.0863698,53.9956203 68.9466953,55.0666928 68.3611372,56.1323739 C67.8140791,57.1513304 67.0315442,58.0732435 66.0645674,58.7795043 C65.1029628,59.4920551 63.9945209,60.0392725 62.803707,60.3753304 C61.6182651,60.7194754 60.3343349,60.820113 59.0826372,60.802142 C56.5756605,60.8093304 53.9845209,60.8174174 51.3208581,60.8255043 C45.9935326,60.8659391 40.3752186,60.908171 34.562614,60.9522 C28.7509047,61.0007217 22.7449047,61.0510406 16.642207,61.102258 C13.5192302,61.1957072 10.1070558,60.0284899 8.06566047,57.3723739 C7.56963721,56.7110406 7.17210233,55.966142 6.91603256,55.1709246 C6.66712558,54.3676203 6.52207907,53.6514754 6.31973023,52.8859101 L5.19069535,48.3608087 C3.68382326,42.326142 2.17695116,36.2905768 0.69335814,30.350258 L0.411323256,29.234258 C0.319997674,28.8388957 0.264486047,28.4444319 0.245683721,28.0436783 C0.23852093,27.8370116 0.232253488,27.6564029 0.251055814,27.4290696 C0.272544186,27.1990406 0.36207907,26.9483449 0.487427907,26.7596493 C0.742602326,26.3633884 1.1455093,26.1082 1.56632326,25.9904899 C1.77583488,25.930287 1.99967209,25.9060261 2.20828837,25.9060261 L2.77414884,25.9087217 L3.90407907,25.9132145 C4.65617209,25.9159101 5.40557907,25.9186058 6.15319535,25.9213014 C9.14455581,25.9329826 12.0983116,25.9437652 15.004614,25.9545478 C20.8163233,25.9392725 26.4346372,25.9293884 31.7628581,25.868287 C37.0901837,25.8179681 42.1274163,25.7703449 46.7769628,25.7263159 C51.4265093,25.6831855 55.6883698,25.6436493 59.4667419,25.6095043 C63.2442186,25.620287 66.538207,25.630171 69.2502186,25.6391565 C70.6057767,25.648142 71.8171837,25.656229 72.870114,25.6634174 C73.1414047,25.6652145 73.4019512,25.6670116 73.6526488,25.6688087 L73.8361953,25.6768957 L74.0770442,25.7056493 C74.2211953,25.7317072 74.3608698,25.7667507 74.4951721,25.8125768 C75.0305907,25.9976783 75.4737884,26.3588957 75.7173233,26.8135623 C75.839986,27.0390986 75.9080326,27.2844029 75.9259395,27.516229 C75.9429512,27.7552435 75.9313116,27.8684609 75.9268349,28.0364899 C75.911614,28.3384029 75.8811721,28.5917942 75.8480442,28.7930696 C75.7817884,29.1965188 75.7226953,29.4004899 75.7226953,29.4004899" id="Fill-20" fill="#42457B"></path>
                                                <path d="M45.3396593,44.9322087 C44.4854965,44.4263246 43.4048105,44.6842087 42.8505895,45.5000928 C42.80045,45.5971362 42.7476244,45.6914841 42.6912174,45.7840348 C41.8057174,47.2423826 40.2290081,48.2128174 38.4302523,48.2128174 C37.9485547,48.2128174 37.4829733,48.143629 37.0424616,48.0142377 C36.9905314,47.9989623 36.9386012,47.9827884 36.8875663,47.9648174 C36.8857756,47.9648174 36.8830895,47.9639188 36.8804035,47.9630203 C36.0154965,47.7087304 35.136264,47.7042377 34.3179151,47.9082087 C33.9436593,48.001658 33.6204384,47.6817739 33.7108686,47.3052812 C33.9141128,46.461542 33.9105314,45.5549043 33.6607291,44.663542 C33.6598337,44.6608464 33.6589384,44.6581507 33.6589384,44.6563536 C33.6419267,44.6033391 33.6258105,44.5503246 33.6114849,44.4973101 C33.4843453,44.0462377 33.4162988,43.5691072 33.4162988,43.0749043 C33.4162988,40.2372812 35.6609384,37.9360928 38.4302523,37.9360928 C40.2290081,37.9360928 41.8057174,38.9065275 42.6903221,40.3648754 C42.7476244,40.4583246 42.8013453,40.553571 42.8514849,40.6506145 C43.4057058,41.4656 44.4854965,41.7234841 45.3405547,41.2176 C46.185764,40.7180058 46.5098802,39.6487304 46.1195081,38.7546725 C46.0559384,38.6378609 45.9905779,38.5219478 45.9234267,38.4078319 C44.3852174,35.8191072 41.604264,34.0893971 38.4302523,34.0893971 C34.2659849,34.0893971 30.7812872,37.0644986 29.8859384,41.0531652 C29.7399965,41.7028174 29.6629965,42.3794261 29.6629965,43.0749043 C29.6629965,45.4434841 30.55745,47.5973101 32.0186593,49.2030203 C32.1574384,49.3557739 32.3024849,49.5031362 32.4511128,49.6469043 C34.0170779,51.1438899 36.119357,52.0604116 38.4302523,52.0604116 C39.1089267,52.0604116 39.7687988,51.9813391 40.4027058,51.8321797 C42.7359849,51.2813681 44.7138105,49.7780928 45.9234267,47.7410783 C45.9896826,47.6287594 46.055043,47.5146435 46.1168221,47.3978319 C46.1168221,47.3978319 46.1168221,47.3978319 46.1177174,47.3978319 C46.5098802,46.5037739 46.185764,45.4327014 45.3396593,44.9322087" id="Fill-22" fill="#AEB2C6"></path>
                                                <path d="M40.4573221,40.8634812 L37.6683105,43.0595391 L36.3306593,42.4287565 C36.2500779,42.3775391 35.7459965,42.2715101 35.4379965,42.5904957 C35.1299965,42.9076841 35.1299965,43.4234522 35.4379965,43.7406406 L37.1114035,45.465858 C37.4194035,45.7830464 37.9190081,45.7830464 38.2270081,45.465858 L41.5738221,42.0136261 C41.8827174,41.6955391 41.8827174,41.1806696 41.5738221,40.8625826 C41.2658221,40.5444957 40.7662174,40.5453942 40.4573221,40.8634812" id="Fill-26" fill="#AEB2C6"></path>
                                                <path d="M12.3119419,13.3369188 L47.2305465,13.6738754 C47.4158837,13.6756725 47.5645116,13.8284261 47.5627209,14.0144261 C47.5609302,14.1977304 47.4131977,14.3459913 47.2305465,14.3477884 L12.3119419,14.6847449 C11.9412674,14.6883391 11.6377442,14.3891217 11.6341628,14.0171217 C11.6305814,13.6451217 11.9278372,13.340513 12.299407,13.3369188 C12.302093,13.3369188 12.3083605,13.3369188 12.3119419,13.3369188" id="Fill-30" fill="#42457B"></path>
                                                <path d="M12.3119419,16.9311217 L41.4107791,17.2680783 C41.5961163,17.2698754 41.7447442,17.422629 41.7429535,17.608629 C41.7402674,17.7919333 41.5925349,17.9392957 41.4107791,17.9419913 L12.3119419,18.2789478 C11.9412674,18.2834406 11.6368488,17.9851217 11.6323721,17.6131217 C11.6287907,17.2402232 11.9251512,16.9356145 12.2967209,16.9311217 C12.3003023,16.9311217 12.3074651,16.9311217 12.3119419,16.9311217" id="Fill-32" fill="#42457B"></path>
                                                <path d="M12.3119419,20.5253246 L32.2388256,20.8622812 C32.4241628,20.8649768 32.5718953,21.018629 32.5692093,21.204629 C32.5656279,21.3870348 32.4187907,21.5326 32.2388256,21.5361942 L12.3119419,21.8731507 C11.9412674,21.8794406 11.6350581,21.5829188 11.6287907,21.2109188 C11.6225233,20.8380203 11.9188837,20.5316145 12.2895581,20.5253246 C12.2958256,20.5253246 12.3056744,20.5253246 12.3119419,20.5253246" id="Fill-34" fill="#42457B"></path>
                                            </g>
                                        </g>
                                    </g>
                                </g>
                            </g>
                        </g>
                    </g>
                </g>
            </g>
        </g>
    </g>
</svg>